<?xml version="1.0" encoding="UTF-8"?>
<svg xmlns="http://www.w3.org/2000/svg" xmlns:svg="http://www.w3.org/2000/svg" xmlns:sodipodi="http://sodipodi.sourceforge.net/DTD/sodipodi-0.dtd" xmlns:inkscape="http://www.inkscape.org/namespaces/inkscape" version="1.1" viewBox="0 0 1100 1000">
  <!-- Generator: Adobe Illustrator 29.1.0, SVG Export Plug-In . SVG Version: 2.1.0 Build 142)  -->
  <defs>
    <style>
      .st0 {
        fill: #ff5053;
      }

      .st1 {
        fill: none;
        stroke-width: 2.9px;
      }

      .st1, .st2 {
        stroke: #6a5fdb;
      }

      .st2 {
        stroke-width: 2.7px;
      }

      .st2, .st3 {
        fill: #0f000a;
      }

      .st4 {
        stroke: #ff5053;
        stroke-linejoin: round;
        stroke-width: 9px;
      }
    </style>
  </defs>
  <g id="svg6">
    <sodipodi:namedview id="namedview6" bordercolor="#000000" borderopacity="0.25" inkscape:current-layer="svg6" inkscape:cx="422.00906" inkscape:cy="-109.52907" inkscape:deskcolor="#d1d1d1" inkscape:pagecheckerboard="0" inkscape:pageopacity="0.0" inkscape:showpageshadow="2" inkscape:window-height="1027" inkscape:window-maximized="0" inkscape:window-width="1200" inkscape:window-x="2858" inkscape:window-y="89" inkscape:zoom="0.31041988" pagecolor="#ffffff"/>
    <path id="path1" class="st2" d="M949.8,301.8l.9-3.1.7-1.2.9-1.2,1-1.1,1.2-.9,2.3-1.6,2.5-1.5,2.7-1.2,2.8-.9,2.8-.5h.7c0,0,2.4-.3,2.4-.3h2.4s2.3.3,2.3.3l2.2.5,1.4.4,2.2.7,2,.9,1.9,1.1,1.8,1.2,1.4,1.1,1.5,1.3,1.4,1.3,1.3,1.4,1.2,1.5,1.6,2.1,1,1.3.9,1.4.9,1.4.8,1.4,2.1,3.7.5,1,.5,1,.5,1,.5,1,3.2,6.3v.2c.1,0,.2.2.2.2v.2c.1,0,.2.2.2.2l3.5,7.1.3.6.3.6.3.6.3.6,2,4.1.8,1.7.8,1.8.8,1.8.8,1.8.4.9,1,2.3,1,2.3,1,2.3,1,2.3.5,1.1.7,1.7.7,1.7.7,1.7.7,1.7,2,5,.2.4.2.4.2.4.2.4,2.3,6,.4,1.2.5,1.2.5,1.2.5,1.1,1,2.4.9,2.2.9,2.2.9,2.2,1,2.2,1,2.3,1.1,2.3,1.1,2.3,1.1,2.3,1,2.1.5,1.1.5,1.1.5,1.1.5,1.1,2.2,4.4.6,1.1.5,1.1.5,1.1.5,1.1,1.4,3,.8,1.8.8,1.8.8,1.8.7,1.8.5,1.2.8,2.2.7,2.2.7,2.2.6,2.2.2.6.5,2.3.5,2.3.4,2.3.3,2.3v1c.1,0,.4,2.1.4,2.1l.2,2.1v2.2c0,0,.1,2.2.1,2.2v1.7s0,2.1,0,2.1v2.1c-.1,0-.4,2.1-.4,2.1l-.3,2.1-.3,1.7-.5,2.2-.6,2.1-.7,2.1-.8,2.1-.5,1.2-1.1,2.2-1.2,2.2-1.4,2.1-1.6,2-.6.7-1.8,2-1.9,1.8-2.1,1.7-2.2,1.6-.6.4-2.4,1.4-2.5,1.2-2.6,1-2.7.8-2.9.6-2.8.3h-2.8s-2.8-.3-2.8-.3l-2.6-.5-2.4-.8-2.3-1-2.1-1.2-.9-.6-1.6-1.2-1.5-1.3-1.3-1.4-1.2-1.5-2.6-3.7-.4-.6-.4-.6-.4-.6-.4-.6-2.1-3.4-1.2-1.9-1.3-1.8-1.4-1.8-1.4-1.7-1.8-2-1.9-1.9-2.1-1.8-2.1-1.7-.5-.4-1.6-1.2-1.6-1.2-1.7-1.1-1.7-1.1-2.6-1.6-1.4-.8-1.4-.8-1.4-.8-1.5-.8-2.6-1.4-1.9-1-1.9-1-1.9-1-1.9-.9-3.6-1.7-1-.5-1-.5-1-.5-1-.5-4.6-2.1-1.5-.7-1.5-.7-1.5-.8-1.5-.8-.8-.4-2.7-1.5-2.6-1.6-2.5-1.7-2.4-1.8-1.6-1.3-1.5-1.4-1.5-1.4-1.4-1.4-3.9-4.1-.2-.2-.2-.2-4-4.1-1.4-1.4-1.5-1.4-1.5-1.4-1.5-1.3-1.1-.9-1.8-1.4-1.8-1.4-1.9-1.3-2-1.3-.6-.4-2.1-1.3-2.2-1.2-2.3-1.1-2.4-1-2.6-1-2.6-.9-2.6-.8-2.7-.7-2.7-.6-2.7-.5-2.7-.4-2.8-.3h-.5s-2.6-.2-2.6-.2h-2.7c0,0-2.7,0-2.7,0h-2.7c0,0-1,.1-1,.1l-2.6.2-2.6.2-2.6.3-2.6.4-1.6.2-2.4.4-2.4.5-2.4.5-2.4.6-3.4,1-3.4,1.1-3.3,1.3-3.3,1.4-1.5.7-1.4.7-1.4.7-1.4.7-1.4.8-3.9,2.2-1.9,1-2,.9-2,.8-2.1.6-3.5.8-3.5.4h-3.4s-3.3-.3-3.3-.3h-.5c0,0-1.9-.4-1.9-.4l-1.8-.5-1.7-.6-1.7-.7-4.7-2.1-.8-.4-.8-.4-.8-.4-.8-.4-3.6-1.9-1.9-1.1-1.8-1.2-1.7-1.4-1.6-1.5-.8-.8-1.4-1.7-1.2-1.8-1-1.9-.8-2-.2-.7-.6-2.2-.3-2.3v-2.3s.3-2.3.3-2.3l.6-2.6,1-2.6,1.3-2.5,1.7-2.5,1.7-2.1,1.8-1.8,2-1.7,2.2-1.5,1.9-1.2,1.9-1.1,1.9-1.1,2-1,2-.9,4.4-1.8,1.3-.5,1.4-.5,1.4-.4,1.4-.3,2-.4,3.3-1,3.2-1.4,2.9-1.8,2.7-2.1,1.7-1.7,1.5-1.8,1.3-1.9,1-2,.5-1.1.9-2.4.7-2.4.4-2.4v-2.4c.1,0,0-3.3,0-3.3v-1s0-1,0-1v-1c0,0-.2-1-.2-1l-1-7.2v-.4c0,0-.1-.4-.1-.4v-.4c0,0-.2-.4-.2-.4l-1.5-4.5-.9-1.5-1.5-1-1.9-.4-2.1.3-1.5.7-1.3,1-1,1.2-.6,1.4-1.2,4.3-.3.8-.3.8-.4.8-.5.8-1.4,2.3-1.8,2.3-2.2,2-2.6,1.7-2.8,1.2-2.2.6-2.2.3h-2.2s-2.1-.3-2.1-.3l-2.4-.5-1.9-.5-1.8-.7-1.7-.8-1.6-1-4.2-3-.5-.4-.5-.4-.5-.4-.5-.4-2.9-2.3-2.1-1.6-2.1-1.5-2.2-1.4-2.3-1.3-2.3-1.1-2.4-1-2.4-.9-2.5-.8-2-.6-1.7-.5-1.7-.5-1.7-.5-1.7-.4-5-1.2-1.1-.3-1.1-.3-1.1-.2-1.2-.2-5.4-1.1-1.6-.3-1.6-.3-1.6-.3-1.6-.4-4.3-1-1.7-.4-1.7-.4-1.7-.3-1.7-.3-3.1-.6-2.2-.4-2.2-.4-2.3-.3-2.3-.3-3.9-.5h-1.4c0-.1-1.4-.3-1.4-.3h-1.4c0,0-1.4-.1-1.4-.1h-5.1c0-.1-1.8,0-1.8,0l-1.8.2-1.8.3-1.8.4-3,.8-2.2.8-2.1,1.1-1.9,1.3-1.7,1.6-1.7,2.1-1.2,2.3-.6,2.4v2.4c0,0,0,.3,0,.3l.3,1.8.7,1.7,1,1.6,1.3,1.4,3.7,3.2.4.3.4.3.4.3.4.3,4.3,3.2,1.3,1.2,1.1,1.3.9,1.5.6,1.6.4,1.3.3,2-.2,2.1-.7,2.1-1.1,2-1.6,1.9-2,1.6-2.3,1.3-2.5.8-.9.2-2,.4h-2c0,0-2,0-2,0l-1.9-.4-6.1-1.9h-.3c0,0-.4-.2-.4-.2l-6.4-1.9-1.8-.4h-1.9c0-.1-2,0-2,0l-2,.4-1,.3-2.6.9-2.3,1.4-2,1.8-1.5,2.1-.8,1.8-.4,1.8v1.8s.3,1.7.3,1.7l1.8,5.4v.2c0,0,1.6,4.4,1.6,4.4l.8,2.4.6,2.4.5,2.4.4,2.5.2,1.4.3,1.7.4,1.7.4,1.7.5,1.7.8,2.3.7,1.8.9,1.7,1,1.6,1.2,1.5,1.4,1.7,1.3,1.3,1.5,1.2,1.7,1,1.8.8,3,.8,3.2.3,3.3-.2,3.3-.7,1.1-.3,1.4-.5,1.4-.6,1.4-.6,1.3-.7,2.6-1.4,2.7-1.3,2.8-1,2.8-.7,2.9-.3h2.6s2.5.3,2.5.3l2.4.6,2.2.8,2.4,1,1.4.7,1.3.7,1.3.8,1.2.9,5.4,4.1.2.2.3.2,4.1,3.1,1.9,1.4,2,1.3,2.1,1.3,2.1,1.2,2.5,1.3,2.5,1.2,2.6,1.1,2.7,1,.7.3,2,.7,2,.6,2.1.6,2.1.5,1.9.5,2.3.5,2.3.5,2.3.5,2.3.4,3.3.6,1.5.3,1.5.2,1.5.2,1.5.2,4.2.6,1.9.3,1.9.3,1.9.3,1.9.2,2.1.3,2.6.3,2.6.3,2.6.3,2.6.2,4.3.4h.9c0,0,.9.1.9.1h.9c0,0,.9.1.9.1l4,.2h2.8c0,0,2.9,0,2.9,0l2.9-.2,2.9-.4,2.9-.5,2.8-.7,2.8-.8,2.8-1,.6-.2,2.5-1,2.5-1.1,2.4-1.2,2.4-1.3,4.5-2.6.6-.3.6-.3.6-.3.6-.3,4.5-2.3,2.5-1.1,2.6-.9,2.6-.7,2.6-.5,2.9-.2h2.9s2.8.4,2.8.4l2.7.6h.5c0,.1,2.2.9,2.2.9l2,.9,1.9,1.1,1.8,1.3.9.7,1.7,1.5,1.5,1.6,1.4,1.7,1.2,1.8.5.8,1.1,1.9.9,2,.8,2.1.6,2.1.2.7.5,2.3.3,2.3.2,2.3v2.4s0,.3,0,.3v2.5c-.1,0-.4,2.5-.4,2.5l-.4,2.5-.6,2.6-.7,2.5-.9,2.5-1,2.4-1.1,2.4-.4.7-1.1,2.2-1.2,2.1-1.3,2.1-1.4,2.1-1.2,1.6-1.3,1.8-1.3,1.8-1.4,1.7-1.4,1.7-1.6,1.9-1.5,1.7-1.5,1.7-1.6,1.7-1.6,1.7-2.1,2.2-1.4,1.4-1.4,1.4-1.5,1.4-1.5,1.4-2.1,1.9-1.8,1.6-1.9,1.5-2,1.5-2,1.4-1.3.9-2.3,1.5-2.3,1.4-2.4,1.3-2.5,1.1-1.3.6-2.4,1-2.4.8-2.5.7-2.5.6-3.2.5-3.2.2h-3.2s-3.1-.3-3.1-.3l-2.3-.4-2.3-.5-2.2-.6-2.1-.8-5.2-2.1h-.3c0-.1-.3-.2-.3-.2h-.3c0-.1-.3-.2-.3-.2l-.5-.2-4.5-1.7-4.6-1.5-4.7-1.3-4.9-1.2h-.5c0-.1-.4-.2-.4-.2h-.4c0,0-.4-.2-.4-.2l-3.9-.9-2.9-.8-2.9-.9-2.8-1.1-2.7-1.2-2.1-1.1-2-1.1-1.9-1.2-1.8-1.3-1.6-1.1-1.5-1.1-1.5-1.2-1.4-1.2-1.4-1.2-1-.9-1.8-1.7-1.8-1.8-1.7-1.8-1.7-2-1.6-1.9-1.5-1.9-1.4-1.9-1.3-1.9-.9-1.4-1-1.4-.9-1.5-.9-1.5-.9-1.5-2.6-4.4-.3-.6-.3-.6-.3-.6-.3-.6-3.1-4.8-.8-1.2-.8-1.1-.9-1.1-.9-1.1-2.4-2.6-1.2-1.2-1.4-1.1-1.5-1-1.6-.9-1.9-.9-2-.8-2.2-.5-2.3-.2-2.5.2-2.9.6-2.7,1-2.5,1.4-2.2,1.8-1.7,1.8-1.4,2-1,2.1-.6,2.2-.4,2.1-.2,1.7v1.7c0,0,0,1.7,0,1.7l.3,1.6,1,4.5.2,1,.2.9.3.9.3.9,1.4,4.2.6,1.6.7,1.6.7,1.6.8,1.5,1.7,2.6,1.9,2.5,2.1,2.3,2.4,2.2,1.4,1.1,1.4,1.1,1.5,1,1.5.9,3.9,2.3,1,.6.9.6.9.6.9.6,5.8,3.7.5.3.5.3.5.3.5.3,2.9,1.7,2.5,1.3,2.6,1.1,2.8.9,2.9.7,2.4.4,2.5.3,2.5.2h2.5s3.4,0,3.4,0h1.6s1.5,0,1.5,0h1.5s1.5.1,1.5.1h1.1c0,0,3.6.3,3.6.3l3.5.4,3.5.5,3.4.7,3.8.8h.2s9.1,2,9.1,2l.8.2.8.2.8.3.8.3,4.3,1.6,1.7.8,1.4,1.1,1.1,1.4.8,1.6.5,2.3-.2,2.5-.9,2.4-1.5,2.3-.6.7-1.4,1.4-1.6,1.2-1.7,1.1-1.9.8-3.8,1.4-1.8.6-1.8.5-1.8.4-1.8.3-2.6.3-2.7.2h-2.7c0,0-2.6,0-2.6,0l-2.6-.3-2.8-.6-2.7-.8-2.6-1-2.4-1.2-1.9-1-1.2-.7-1.2-.7-1.1-.8-1.1-.8-3.6-2.7-1.2-.9-1.2-.9-1.2-.8-1.2-.8-5.5-3.7-.3-.2-.3-.2-.3-.2-.3-.2-7.5-5.1-.3-.2-.3-.2-5.8-4.1-1.2-.7-1.2-.6-1.3-.5-1.4-.4-3-.7-2-.2-2.1.2-2.1.6-2,1-2.1,1.6-1.5,2-.9,2.2-.2,2.2.4,1.9.9,1.7,1.4,1.4,1.8,1,4.3,1.7.7.3.7.2.7.2.7.2,2.2.5,3.3.9,3.2,1.2,2.9,1.6,2.6,1.9,1.3,1.1,1.2,1.2,1.1,1.3,1,1.4,2,3,.8,1.2.9,1.1,1,1.1,1,1,1,.9,2.1,1.8,2.4,1.5,2.6,1.3,2.8,1,2.3.6,2.3.4,2.4.2h2.4c0,0,2.7,0,2.7,0h2c0,0,2-.2,2-.2l2-.2,2-.3,3.6-.6,2-.3,2-.4,2-.4,2-.5,4.1-1,1.7-.4,1.7-.3,1.7-.3,1.7-.3,2.5-.3,2.8-.3h2.8c0-.1,2.8,0,2.8,0l2.8.2,2.8.4,2.7.6,2.6.8,2.5,1,2.3,1.1,2.1,1.3,2,1.4,1.8,1.6,1.8,1.8,1.6,1.9,1.4,2.1,1.2,2.3.9,2.2.7,2.2.5,2.3.3,2.3v1.2c.1,0,.3,2,.3,2v2s0,2,0,2l-.2,2.1-.2,1.7-.3,2.2-.4,2.2-.5,2.2-.6,2.2-.3.9-.8,2.5-.8,2.5-.9,2.4-1.1,2.5-1.2,2.6-1.2,2.4-1.3,2.4-1.4,2.4-1.5,2.4-1.6,2.3-1.6,2.3-1.8,2.3-1.8,2.3-1.8,2.2-1.9,2.1-2,2.1-.6.6-1.8,1.8-1.9,1.8-2,1.7-2,1.6-1.9,1.5-1.7,1.3-1.8,1.2-1.8,1.2-1.8,1.1-2.7,1.5-2,1.1-2.1,1-2.2.8-2.2.7-2.8.8-2.1.5-2.1.2h-2.1s-2-.2-2-.2l-1.7-.3-2.3-.6-2-1-1.7-1.4-1.3-1.7-.8-2-.3-2.1.2-2.2.7-2.2.5-1.2.8-1.6,1-1.5,1.2-1.4,1.3-1.3,5.2-4.6.3-.3.3-.3.3-.3.3-.3,5.2-4.3,1.6-1.4,1.5-1.5,1.4-1.5,1.3-1.6,1.6-2,1.3-1.9,1.1-2,.9-2,.7-2.1.2-.9.4-2.3v-2.3s-.3-2.2-.3-2.2l-.7-2.1-1.1-2-1.5-1.8-1.8-1.6-2.1-1.3-1-.5-1.8-.8-1.9-.7-2-.5-2.1-.3-5.9-.6h-.5s-.5,0-.5,0h-.5s-.5,0-.5,0l-6-.3-2.1-.2-2.1-.3-2-.4-2-.5-1-.3-2.6-.9-2.4-1.2-2.2-1.4-2-1.6-1.6-1.7-1.4-1.8-1.2-2-.9-2.1-1.4-3.6-.2-.7-.2-.7-.2-.7-.2-.7-1.5-5.3-.5-1.3-.6-1.3-.8-1.2-1-1.1-1.3-1.3-1.7-1.3-2.1-.9-2.3-.4h-2.5c0,0-2.5.6-2.5.6l-2.4,1-2.1,1.4-1.8,1.8-1.7,2-1,1.3-.9,1.4-.7,1.4-.6,1.5-2.2,6.9v.2c0,0-.2.3-.2.3l-2.4,8-.3,1-.3,1-.3,1-.3,1-.8,2.8-.8,2.7-.9,2.7-.9,2.7-1,2.7-.9,2.4-1,2.4-1,2.4-1.1,2.3-.7,1.4-1,1.9-1,1.9-1,1.9-1.1,1.9-1,1.8-1.2,2-1.3,2-1.3,2-1.4,2-2,2.6-2.1,2.6-2.2,2.5-2.3,2.4-1.7,1.8-1.8,1.7-1.8,1.7-1.9,1.6-3.9,3.3-.7.6-.7.6-.7.6-.7.6-4,3.8-1.5,1.5-1.4,1.6-1.2,1.7-1,1.8v.2c-.1,0-1.3,2.8-1.3,2.8l-.8,2.8-.3,2.8v2.8c.1,0,.5,1.9.5,1.9l.6,1.9.9,1.8,1.1,1.6,2.3,3,.6.9.6.9.5.9.5.9.9,2,.8,2.4.3,2.5v2.6c-.1,0-.7,2.6-.7,2.6l-.8,2.2-1.1,2.1-1.4,2-1.7,1.9-2.4,2.4-1.1,1.1-1.2,1-1.2,1-1.3.9-3.5,2.5-1.8,1.2-1.9,1-2,.9-2,.7h-.5c0,.1-3.2.8-3.2.8l-3.2.2-3.1-.2-2.9-.7-2-.8-1.9-1-1.7-1.3-1.4-1.5-3.6-4.3-.2-.2-3.4-4-1.6-1.7-1.7-1.5-1.8-1.4-1.9-1.3-1.4-.8-1.7-1-1.8-.8-1.9-.7-2-.5-1.8-.4-2.4-.4h-2.4c0-.1-2.5,0-2.5,0l-2.5.4-3,.8-2.9,1.2-2.8,1.5-2.5,1.9-3,2.5-.6.5-.6.5-.6.5-.6.5-1,1-3.2,3-3.4,2.8-3.6,2.6-3.7,2.4-1.4.8-.7.4-.6.4-.6.4-.6.4-4.3,3.1-1.9,1.6-1.6,1.8-1.3,2-.9,2.1-.4,1.2-.5,2.2v2.1s.5,2,.5,2l1,1.8.7.9,1.4,1.3,1.7.9,2,.5h2.2s2.7-.6,2.7-.6l2.5-1.3,2-1.8,1.4-2.2,1.7-3.5v-.3c.1,0,.3-.3.3-.3l2.6-5,1.3-2.2,1.6-2,1.9-1.9,2.1-1.7,2.5-1.5,2.7-1.2,2.8-.9,2.8-.6h.8c0-.1,2.3-.3,2.3-.3h2.3s2.2.2,2.2.2l2.1.4,2.2.5,2,.6,1.9.7,1.9.8,1.8.9,2.4,1.3,1.6.9,1.5,1,1.5,1,1.4,1.1,4.2,3.3.5.4.5.4.5.4.5.4,3.7,2.4,2,1.1,2.1.8,2.3.6,2.4.3h2.8s2.8-.4,2.8-.4l2.8-.7,2.7-1,1.6-.7,1.8-.9,1.8-1,1.7-1.1,1.6-1.2,3.8-3.2,1.1-.9,1.1-.8,1.2-.8,1.2-.8,2.4-1.5,2.6-1.4,2.7-1.1,2.8-.8,2.8-.4h2.6c0,0,2.6.1,2.6.1l2.4.5,2.3.8,1,.4,1.9.9,1.8,1.1,1.7,1.3,1.5,1.4,1,1,1.4,1.6,1.2,1.7,1.1,1.8.9,1.9.6,1.3.7,1.9.6,1.9.5,2,.3,2,.2,1.8.2,2v2c.1,0,.2,2,.2,2v2.1s0,2,0,2v2c0,0-.2,2-.2,2l-.2,2-.3,2-.3,1.9-.3,2.1-.4,2.1-.4,2.1-.4,2.1-.4,1.7-.5,2.2-.5,2.2-.6,2.2-.6,2.2-.5,1.6-.7,2.1-.7,2.1-.8,2.1-.8,2.1-.6,1.5-.9,2.2-1,2.2-1.1,2.2-1.2,2.1-.7,1.2-1.3,2.1-1.4,2.1-1.5,2-1.5,2-.8,1-1.6,1.9-1.7,1.9-1.8,1.8-1.9,1.7-1.1.9-2,1.6-2.1,1.5-2.2,1.4-2.3,1.3-1.2.6-2.4,1.1-2.4,1-2.5.8-2.5.6-1.2.2-2.5.4-2.5.2h-2.5c0,0-2.4-.4-2.4-.4l-.9-.2-2.3-.6-2.2-.9-2-1.1-1.8-1.4-.2-.2-1.6-1.7-1.3-1.9-.9-2.1-.5-2.3v-2.3c-.1,0,.2-2.4.2-2.4l.7-2.4,1-2.3,1.4-2.6.7-1.2.8-1.2.8-1.2.9-1.1,2.1-2.6,1.6-2,1.5-2.1,1.4-2.1,1.2-2.2.2-.4,1.2-2.5,1.1-2.5.9-2.6.7-2.6.2-.7.4-2.2.3-2.2.2-2.1v-2.1s0-1.2,0-1.2l-.2-2.2-.4-2.2-.6-2.1-.8-2-1.2-2.3-1.5-2.2-1.7-2-2.1-1.9-1.8-1.4-1.9-1.2-2-1-2.1-.9-4.7-1.8-.5-.2-.5-.2-.5-.2-.5-.2-1.9-.8-3.4-1.5-3.3-1.7-3.1-1.9-2.9-2.1-1.4-1.1-.5-.4-.5-.4-.5-.3-.5-.3-3.3-2-2.3-1.1-2.6-.7-2.7-.3h-2.8c0,.1-2.7.7-2.7.7l-2.7.9-2.5,1.3-2.3,1.6-2.2,1.7-1.2,1-1.1,1.1-1,1.2-.9,1.2-2.4,3.6-.8,1.6-.4,1.7v1.6c0,0,.6,1.5.6,1.5l1.6,1.9,2.3,1.1,2.8.3,2.9-.6,2.2-.9,3.1-1.3,3.9-1.3,4-.7,4-.2,3.8.4,1.2.2,1.2.3,1.2.4,1.1.4,6.5,2.6.6.2.6.2.6.2.6.2,5.3,1.8,1.8.7,1.7.9,1.5,1,1.4,1.2,1.8,2.1,1.4,2.3,1,2.6.5,2.7v.8c0,0,.1,1.6.1,1.6v1.6c0,0-.3,1.6-.3,1.6l-.3,1.6-1.1,4.3-.4,1.4-.5,1.3-.7,1.3-.8,1.3-1.9,2.9-1.3,1.6-1.6,1.4-1.9,1.1-2,.8-2.4.5h-2.4s-2.2-.5-2.2-.5l-2-1-2.3-1.5-1-.7-.9-.8-.8-.9-.7-1-2.6-3.9-.8-1.1-.8-1.1-.9-1-.9-1-2.1-2.2-1.5-1.4-1.7-1.3-1.8-1.1-2-.9-.9-.4-2.3-.8-2.5-.5-2.6-.2h-2.7c0,.1-2.8.6-2.8.6l-2.8.8-2.7,1.1-2.6,1.4-2.3,1.6-2.1,1.7-1.8,1.9-1.6,2.1-.5.7-1.3,2.1-1,2.1-.8,2.2-.6,2.2-.3,1.8-.3,1.9-.2,1.9v1.9s0,1.9,0,1.9l.4,4.1v1.1c.1,0,.3,1.1.3,1.1l.2,1.1.2,1.1.7,3.8.3,1.9.3,2,.3,2,.3,2v.9c.1,0,.4,2.5.4,2.5l.2,2.6.2,2.6v2.6c.1,0,.2.9.2.9v2c0,0,.1,2,.1,2v2s0,2,0,2v2.4c0,0-.1,1.9-.1,1.9v1.9c-.1,0-.3,1.9-.3,1.9l-.2,1.9-.3,2.5-.3,2-.4,2-.5,2-.6,2-.6,2-.7,2.1-.9,2.1-1,2-1.1,2-.8,1.3-1.4,2.1-1.6,2-1.7,1.9-1.9,1.8-.7.6-2.1,1.7-2.3,1.6-2.4,1.4-2.5,1.2h-.3c0,.1-2.8,1.1-2.8,1.1l-2.8.7-2.9.4h-2.8c0,.1-2.8,0-2.8,0l-2.7-.4-2.6-.7-2.4-1h-.2c0-.1-2.1-1.3-2.1-1.3l-1.9-1.4-1.7-1.6-1.5-1.8-.4-.5-1.2-1.9-1-2-.8-2.1-.6-2.2-.2-1-.3-2.2-.2-2.2v-2.2s.2-2.3.2-2.3l.2-1.5.3-2.1.5-2.1.6-2.1.7-2,.7-2,.8-2,.8-2,.9-2,1-2,.8-1.5,1.2-2.2,1.2-2.2,1.3-2.2,1.3-2.1.7-1,1.4-2.1,1.4-2.1,1.5-2.1,1.5-2,2-2.6.9-1.2,1-1.2,1-1.2,1-1.2,3-3.8,1.1-1.4,1.1-1.4,1.1-1.4,1-1.4,1.6-2.2,1.5-2.1,1.4-2.1,1.4-2.2,1.3-2.2.5-.8,1.2-2.2,1.2-2.3,1.1-2.3,1-2.3.5-1.1.8-2.2.7-2.2.6-2.2.5-2.2.5-2,.4-1.9.3-1.9v-1.9c.1,0,.2-1.9.2-1.9v-1.2s-.2-2.5-.2-2.5l-.4-2.5-.7-2.4-.9-2.3-.5-1-.9-1.6-1-1.5-1.2-1.4-1.3-1.3-1.2-1.1-1.9-1.4-2.1-1.1-2.3-.8-2.5-.5h-2.7c0-.1-2.8.1-2.8.1l-2.8.6-2.7,1-2.5,1.2-2.3,1.5-2.1,1.7-1.8,1.9-1,1.2-1.3,1.6-1.1,1.7-.9,1.8-.8,1.8-2.2,5.8v.3c-.1,0-.2.3-.2.3v.3c-.1,0-.2.3-.2.3l-1.6,4.6-.9,2.5-1.1,2.5-1.2,2.4-1.3,2.4-1.4,2.4-1.6,2.4-1.7,2.3-1.8,2.3-1,1.2-1.3,1.6-1.4,1.6-1.4,1.6-1.5,1.5-3.4,3.5-.9.9-.9.9-.9.9-.9.9-4.7,4.6-.9.9-.9.9-.9.9-.9.9-3.1,3-1.8,1.7-1.8,1.7-1.9,1.7-1.9,1.6-.7.6-2.3,1.9-2.3,1.9-2.4,1.9-2.4,1.8-.3.2-2.2,1.6-2.3,1.6-2.3,1.5-2.3,1.5-1.2.8-2.1,1.3-2.2,1.3-2.2,1.3-2.2,1.2-1.6.9-2.3,1.2-2.3,1.1-2.3,1-2.4,1-1.8.7-2.3.9-2.4.8-2.4.7-2.4.6-1.4.3-2.7.5-2.7.4-2.7.3h-2.6c0,.1-.4.1-.4.1h-2.9c0,0-2.8-.3-2.8-.3l-2.7-.4-2.8-.6-2.5-.8-2.3-.9-2.2-1.1-2.1-1.2-.6-.3-1.9-1.3-1.8-1.5-1.6-1.6-1.4-1.7-.4-.6-1.2-1.8-1-2-.8-2.1-.5-2.2v-.4c0,0-.4-2.4-.4-2.4v-2.4s.3-2.4.3-2.4l.6-2.4.9-2.5,1.2-2.4,1.4-2.3,1.7-2.2.3-.4,1.7-1.9,1.9-1.8,2-1.7,2.2-1.5,1.5-1,2-1.2,2.1-1.1,2.1-1,2.2-.9,3.7-1.5,1.5-.6,1.6-.6,1.6-.5,1.6-.5,6.6-2.1.8-.3.8-.3.8-.3.8-.3,5.7-1.9,2-.7,2-.8,2-.8,2-.9,2.3-1.1,2.3-1.2,2.2-1.3,2.1-1.4,2-1.5,1-.8,2-1.7,1.9-1.9,1.7-2,1.5-2.1.3-.4,1.4-2.3,1.2-2.4.9-2.4.6-2.5.3-2.5v-2.5s-.2-2.4-.2-2.4l-.6-2.3v-.5c-.1,0-.9-2-.9-2l-1-1.9-1.2-1.8-1.4-1.7-1.1-1.3-1.3-1.4-1.4-1.3-1.5-1.2-1.6-1.1-2.9-2-1.2-.8-1.2-.8-1.2-.8-1.3-.7-3.2-1.8-1.7-.9-1.7-.9-1.7-.9-1.7-.9-2-1-2-1-2-.9-2.1-.9-2.1-.9-2.9-1.1-2.9-1-2.9-.9-3-.8-2.3-.6-2.3-.6-2.3-.5-2.4-.5-2.3-.4-2-.3-2-.3-2-.3-2-.2-2.2-.2-2.5-.2-2.5-.2h-2.5c0,0-2.6-.1-2.6-.1h-3.2c0,0-3.2.3-3.2.3l-3.2.3-3.2.4-4.3.7h-.4c0,0-.4.1-.4.1h-.4c0,0-.4.1-.4.1l-4,.7-3.4.5-3.4.5-3.4.4-3.4.4-2.4.2-2.4.2-2.4.2h-2.4c0,.1-4.4.3-4.4.3h-1.2c0,0-1.2.1-1.2.1h-1.2s-1.2,0-1.2,0l-6,.2h-1.6c0,0-1.6.1-1.6.1h-1.6c0,0-1.6.2-1.6.2l-3.1.2-2.7.2-2.7.2-2.7.3-2.7.4-3.2.5-3.2.6-3.2.6-3.2.7h-.4c0,0-2.4.7-2.4.7l-2.4.6-2.4.7-2.4.7-3.4,1-1.6.5-1.6.5-1.6.5-1.6.5-6.8,2.2-.7.2-.7.2-.7.2-.7.2-6.6,2.2-1.7.6-1.7.6-1.7.6-1.7.6-2,.7-3,1.1-3,1.1-3,1.1-2.9,1.2-2.6,1.1-2.6,1.1-2.6,1.2-2.6,1.2-4.2,1.9-.8.3-.8.3-.8.3-.8.3-5.7,2.5-1.9.8-2,.7-2,.7-2,.6-2.8.8-2.4.6-2.4.5-2.4.3h-2.4c0,.1-1.5.2-1.5.2h-2.6s-2.5-.3-2.5-.3l-2.4-.5-2.3-.7h-.4c0-.1-2.3-1.2-2.3-1.2l-2.1-1.3-1.9-1.6-1.6-1.8-1.3-2-1-2.1-.7-2.3-.3-2.4v-2.5s.4-2.4.4-2.4l.7-2.4,1-2.3,1.4-2.4,1.7-2.2,2-2.1,2.3-1.9,2.3-1.6,2.4-1.3,2.5-1.1,2.6-.9,1.8-.5,2.1-.5,2.1-.4,2.1-.3h2.1c0-.1,5.6-.3,5.6-.3h.9s.9,0,.9,0h.9s.9,0,.9,0h4.7s2.5,0,2.5,0h2.5s2.5,0,2.5,0h2.5c0,0,1.7-.2,1.7-.2h2.4c0-.1,2.5-.3,2.5-.3l2.5-.2,2.5-.2,2.3-.2,2.3-.3,2.3-.3,2.2-.4,2.2-.4,2.5-.5,2.3-.5,2.3-.6,2.3-.7,2.3-.8,1.7-.6,2.5-.9,2.4-1.1,2.4-1.2,2.3-1.3.8-.5,2.4-1.5,2.3-1.7,2.1-1.8,2.1-2,2-2.2,1.7-2.2,1.5-2.3,1.3-2.4,1.1-2.4.9-2.5.6-2.5.4-2.5v-.3s.2-2.4.2-2.4v-2.3s-.2-2.3-.2-2.3l-.4-2.3-.2-1-.5-2-.7-2-.8-1.9-.9-1.8-1.4-2.6-.7-1.2-.7-1.2-.7-1.2-.8-1.2-2.4-3.6-.8-1.1-.7-1.2-.7-1.2-.7-1.2-1.2-2.2-1-2-.9-2.1-.7-2.2-.6-2.2-.5-2.5-.3-2.6v-2.6c-.1,0,0-2.7,0-2.7v-.9c0,0,.2-1.9.2-1.9l.2-1.9.3-1.9.4-1.9,1.4-6.1v-.2c0,0,.1-.3.1-.3l1.4-6,.4-2,.3-2,.3-2,.2-2,.2-1.9v-2.2c.1,0,.2-2.2.2-2.2v-2.1c0,0-.3-2.1-.3-2.1l-.2-1.3-.4-2.1-.5-2.1-.7-2-.8-2-.4-.9-1-1.9-1.2-1.8-1.4-1.7-1.5-1.6-.6-.5-1.7-1.5-1.9-1.3-2.1-1.1-2.2-.9-.5-.2-2.4-.7-2.5-.5-2.6-.2h-2.8s-2.9.3-2.9.3l-2.8.5-2.8.8-2.7,1.1-2.6,1.3-2.5,1.6-2.3,1.8-2.1,2-.4.4-1.7,1.9-1.5,2-1.3,2.1-1.1,2.2-.6,1.3-.9,2.1-.7,2.1-.5,2.1-.4,2.2-.3,2.2-.2,1.9v1.9c-.1,0-.1,1.9-.1,1.9v1.8c0,0,.4,5,.4,5v.7s0,.7,0,.7v.7c0,0,.1.7.1.7l.5,5.3v1.7c.1,0,.2,1.7.2,1.7v1.7c0,0,0,1.7,0,1.7v2.6s0,2.1,0,2.1l-.2,2.1-.3,2.1-.3,2.1-.2,1.3-.5,2.3-.7,2.3-.8,2.3-.9,2.3-.4,1-1.1,2.2-1.2,2.2-1.4,2.1-1.5,2.1-.7.9-1.7,2-1.8,1.9-2,1.7-2.1,1.6-1.1.8-2.2,1.4-2.3,1.2-2.4,1.1-2.5.9-1.1.3-2.6.6-2.6.4h-2.6c0,0-2.5-.2-2.5-.2h-.6c0,0-2.5-.6-2.5-.6l-2.3-.9-2.1-1.2-1.8-1.5-1.6-1.8-1.2-2.1-.8-2.2-.4-2.4v-2.3s.4-2.3.4-2.3l.7-2.3,1-2.2,1-1.9.9-1.5,1-1.5,1.1-1.5,1.2-1.4,3.3-3.5,1-1.1,1-1.1,1-1.2.9-1.2,2-2.6,1.5-2.1,1.3-2.2,1.2-2.2,1-2.3.3-.7.8-2.3.5-2.4.3-2.4v-2.3c0,0,0-.8,0-.8l-.2-2.2-.4-2.1-.7-2-.9-1.9-.3-.5-1.3-1.9-1.6-1.7-1.8-1.5-2-1.3-2.3-1.1-2.5-.8-2.6-.5-2.7-.2h-1.7s-1.9,0-1.9,0h-1.9c0,.1-1.9.4-1.9.4l-1.9.4-4.8,1-1.5.3-1.5.3-1.5.2-1.5.2-3.3.4-2.6.2h-2.6s-2.5-.2-2.5-.2l-2.5-.4-.9-.2-2.4-.6-2.3-.8-2.1-1-2-1.2-.7-.5-1.7-1.4-1.5-1.6-1.3-1.7-1-1.9-.3-.6-.7-2.1-.4-2.2v-2.2s.3-2.3.3-2.3l.8-2.5,1.2-2.4,1.5-2.3,1.9-2.1.5-.4,1.7-1.6,1.9-1.4,2-1.2,2.1-1.1,6.1-2.7.3-.2.5-.2,5.7-2.7,2.3-1.2,2.2-1.4,2-1.5,1.9-1.7,2-2.3,1.7-2.4,1.4-2.6,1-2.6.7-2.2.3-1.2.3-1.2.2-1.2.2-1.2.3-2.5.4-2.6.7-2.6,1-2.5,1.2-2.5,1.3-2.3,1.5-2.2,1.7-2.1,1.9-2,.6-.6,1.9-1.7,2.1-1.6,2.2-1.5,2.3-1.3,2.9-1.4,3-1.2,3.1-.9,3.2-.7,2.6-.3h2.4c0-.1,2.4-.1,2.4-.1l2.4.2,5.9.7h.4s.5.1.5.1l5.6.5,2.6.2h2.7s2.7,0,2.7,0l2.7-.3,3-.5,3-.7,3-.9,3.1-1.1,2.6-1.1,2.5-1.2,2.4-1.3,2.3-1.4,1-.6,2.2-1.5,2.2-1.5,2.1-1.6,2-1.7,2.8-2.4,1.1-1,1.1-1,1-1,1-1,2.6-2.5,1.9-1.8,2-1.8,2-1.7,2.1-1.7,2.6-2,2.7-1.9,2.7-1.8,2.8-1.7.8-.5,2-1.1,2-1.1,2-1.1,2-1,2.8-1.4,2-1,2-1,2-.9,2-.9,4.2-1.8,1.4-.6,1.4-.6,1.4-.6,1.4-.7,1.6-.8,3.2-1.6,3.2-1.7,3.1-1.8,3.1-1.9.5-.3,1.8-1.1,1.8-1.2,1.7-1.2,1.7-1.2,1.1-.8,2.5-1.9,2.4-2,2.4-2.1,2.3-2.1,1.9-2,1.9-2,1.8-2,1.7-2.1.4-.6,1.6-2.1,1.6-2.2,1.5-2.2,1.4-2.2,2.2-3.5.5-.8.5-.8.5-.8.5-.8,1-1.8,1.8-3.1,2-3,2.2-2.9,2.4-2.8,1.1-1.2.9-1,.8-1,.8-1,.8-1,1.6-2.3,1.5-2.3,1.2-2.4.8-2.5.5-2.5.5-2.4.8-2.4,1.1-2.4,1.4-2.3,2.3-3.4.5-.7.5-.7.6-.7.6-.7,3.3-4.1,1.3-1.7,1.1-1.8,1-1.8.8-1.9v-.4c.1,0,1-2.9,1-2.9l.4-2.9v-2.8s-.4-2.7-.4-2.7l-.6-1.9-.8-1.8-1-1.7-1.2-1.6-1.4-1.6-1.2-1.3-1.3-1.2-1.4-1.2-1.5-1.1-3.6-2.4-.9-.6-1-.6-1-.6-1-.6-5.2-3-.9-.5-.9-.5-.9-.5-.9-.5-7-3.9h-.2c0-.1-.3-.3-.3-.3l-7.3-4.1-.8-.4-.8-.4-.8-.4-.8-.4-4.4-2.5-1.5-.9-1.5-.9-1.5-.9-1.5-.9-1.5-1-2.1-1.4-2-1.4-2-1.5-1.9-1.5-1.6-1.3-1.2-1-1.2-1.1-1.1-1.1-1.1-1.1-2.2-2.4-1.2-1.3-1.1-1.4-1-1.5-.9-1.5-1-1.9-.8-1.9-.6-1.9-.3-2v-2.1c-.1,0,0-.5,0-.5l.2-2.6.6-2.6,1-2.6,1.4-2.5,1.5-2.1,1.8-1.9,2-1.8,2.2-1.6,1.2-.8,2.1-1.3,2.2-1.1,2.3-.9,2.3-.8,1.9-.6,2.4-.6,2.4-.5,2.4-.4,2.4-.2,2.6-.2h2.1c0-.1,2.1-.2,2.1-.2h2.1s2.1,0,2.1,0l5.2.3h1c0,0,1,.1,1,.1h1c0,0,1,.2,1,.2l5.9.5h1.7c0,.1,1.7.2,1.7.2h1.7c0,0,1.7.1,1.7.1h4c0,0,4.1,0,4.1,0l4.1-.2,4.1-.3,3.4-.3,7.4-.7h2.1c0,0,2.1,0,2.1,0l2,.3,1.9.6.7.3,2.3,1.1,2,1.5,1.6,1.8,1.1,2.1.6,2,.2,2.1-.2,2.1-.5,2.1-.7,2-.7,1.7-.8,1.7-1,1.6-1.1,1.6-4.1,5.3-.2.3-.2.3-.2.3-.2.3-3,4.1-1.6,2.2-1.4,2.3-1.3,2.3-1.1,2.4-1,2.6-.8,2.6-.6,2.6-.4,2.6v.5c0,0-.2,2.2-.2,2.2v2.2c0,0,0,2.2,0,2.2l.2,2.2v1c.1,0,.5,2.2.5,2.2l.5,2.2.6,2.2.7,2.1,1.2,3.4.3.8.3.8.3.8.3.8,1.8,3.9.7,1.8.5,1.8.3,1.9v1.9c.1,0,0,2.9,0,2.9l-.6,2.9-1,2.9-1.4,2.8-.7,1.3-.8,1.2-.8,1.2-.9,1.2-.9,1.2-4.1,5-.6.8-.6.8-.5.9-.5.9-2,3.8-.8,2-.2,2,.3,1.9.8,1.7,1.3,1.5,1.8,1.1,2.1.7,2.3.2h3.5c0-.1,1-.2,1-.2h1c0-.1,1-.3,1-.3l1-.2,7.8-2,.9-.2.8-.2.8-.3.8-.3,5.1-1.8,2.2-.9,2-1.2,1.9-1.4,1.7-1.6,1.9-2.5,1.3-2.6.7-2.7v-2.7c.1,0-.2-1.9-.2-1.9l-.6-1.8-1-1.6-1.2-1.4-2.7-2.6-.7-.8-.7-.8-.7-.8-.6-.9-2-2.9-1.1-1.7-1.1-1.8-1-1.8-.9-1.9-1.9-4-.3-.5-.3-.5-.3-.5-.3-.5-2.1-4-.9-1.8-.7-1.9-.5-2-.3-2v-2.9c0,0,.2-2.9.2-2.9l.7-2.9,1-2.9.4-.9.8-1.6.8-1.6.9-1.6,1-1.6,2.2-3.1,1.1-1.6,1-1.6,1-1.6.9-1.6,1.6-3.3,1.4-3.3,1.1-3.4.9-3.4.3-1.7.3-1.7.2-1.7.2-1.7.3-4.4v-1.2c.1,0,.2-1.2.2-1.2l.2-1.2.2-1.2.4-1.9.8-2.9,1.1-2.9,1.4-2.8,1.7-2.7,1.4-1.9,1.5-1.8,1.7-1.8,1.8-1.7,2.2-1.9,1.5-1.3,1.4-1.4,1.3-1.4,1.3-1.5,2.2-3,1.9-3.1,1.6-3.2,1.2-3.2.5-1.8.4-1.8.3-1.8.2-1.8.6-6.6.7-6.9.2-1.7.3-1.7.4-1.7.4-1.7.8-2.7.7-2,.9-2,1.1-2,1.2-1.9.7-1.1,1.7-2.1,1.9-2,2.1-1.8,2.3-1.6,2.7-1.4,2.8-1.1,2.9-.8,3-.5,1.5-.2,2-.2h2s2,0,2,0l1.9.2,5.1.8,1.1.2,1.1.2,1.1.2,1.1.2,5.4,1.2,1.7.4,1.7.3,1.7.3,1.7.3,1.9.4,2.8.5,2.9.4,2.9.4,2.9.3,2.7.2,2.7.2h2.8c0,.1,2.8.2,2.8.2h4.6c0,.1.7.1.7.1h.7s.7,0,.7,0h.7s5.8.4,5.8.4l2.1.2,2.1.3,2,.5,1.9.6,1.2.4,2.4,1,2.2,1.3,2,1.5,1.7,1.7,1.4,1.9,1.1,2,.8,2.2.5,2.4.2,2.5v2.4c0,0-.5,2.4-.5,2.4l-.7,2.5-1,2.5-1.2,2.3-1.5,2.2-1.7,2.1-1,1.1-1.5,1.6-1.6,1.5-1.7,1.4-1.8,1.4-4.6,3.3-.7.5-.7.5-.7.5-.7.5-5.5,3.6-1.5,1-1.5,1.1-1.4,1.1-1.4,1.2-2.4,2-1.9,1.7-1.7,1.8-1.6,1.9-1.5,2-1.6,2.6-1.2,2.6-.9,2.7-.6,2.7-.3,2.2v2.2s.1,2.2.1,2.2l.4,2.1.4,1.8.5,1.7.6,1.7.7,1.7.8,1.6,1.6,3.1.7,1.2.7,1.2.7,1.2.7,1.2,3,4.6.4.7.4.7.4.7.4.7,2.4,3.9.9,1.6.8,1.6.7,1.6.6,1.7v.3c.1,0,1,2.8,1,2.8l.6,2.9.4,2.9v3c.1,0,0,2,0,2l-.2,2-.3,2-.4,2-.7,3.5-.2,1.4-.2,1.4v1.4c-.1,0-.2,1.3-.2,1.3v2.9s0,2.2,0,2.2l.4,2.1.7,2,1,1.9.4.6,1.3,1.8,1.6,1.5,1.9,1.3,2.1,1,.8.3,2.1.6,2.3.3h2.4s2.5-.4,2.5-.4l2.9-.8,2.6-1.2,2.4-1.6,2.1-1.9,1.5-1.8,1.2-1.9.8-2,.5-2.1.8-5.7v-.2s1-5,1-5l1.3-4.9,1.7-4.8,2-4.8.2-.4,2.2-4.7,1.1-2.6,1-2.6.9-2.7.7-2.7.5-2.4.4-2.4.3-2.4.2-2.4.2-2.9v-1.2c0,0,.1-1.2.1-1.2v-1.2s0-1.2,0-1.2v-6.2s0-1.5,0-1.5v-1.5s.1-1.5.1-1.5l.2-3.8v-1.7c0,0,.2-1.7.2-1.7l.2-1.7.2-1.7.5-3.4.3-1.7.4-1.7.5-1.7.6-1.7,1.1-2.9.8-1.8,1-1.8,1.1-1.7,1.3-1.6,1.5-1.7,1.7-1.7,1.9-1.5,2.1-1.2,2.2-1h.3c0-.1,2.7-.9,2.7-.9l2.7-.3h2.7c0,.1,2.5.7,2.5.7l2,.9,1.8,1.2,1.5,1.5,1.1,1.7.6,1.2.8,1.7.5,1.8.3,1.9v1.9s-.1,2.3-.1,2.3l-.2,1.9-.3,1.9-.5,1.9-.6,1.9-1,2.7-.7,1.8-.8,1.8-.9,1.8-1,1.7-2.8,4.9-.4.7-.4.7-.4.7-.4.7-1.1,1.8-1.9,3.2-1.9,3.2-1.8,3.3-1.8,3.3-.9,1.7-.4.8-.4.8-.4.8-.4.8-3.7,6.8-.4.7-.4.7-.4.7-.4.7-3.6,6.4-.5.9-.5.9-.5.9-.5.9-2.1,4.2-.9,1.9-.8,1.9-.7,1.9-.5,1.9-.2,1-.5,2.6-.3,2.6v2.6s.2,2.5.2,2.5l.4,2.3.7,2.2.9,2.2,1.1,2.1,1.1,1.9.7,1.2.8,1.1.9,1.1,1,1,3.4,3.2.9.7,1.1.6,1.2.5,1.3.3,2,.3h2.3s2.3-.7,2.3-.7l2-1.2,1.6-1.7.7-1.4.4-1.5v-1.4s-.5-1.3-.5-1.3l-2.4-4.7-.3-.5-.3-.5-.3-.5-.3-.4-2.5-3.4-1.2-1.9-1-2-.8-2.1-.6-2.2-.4-2.5v-2.6c-.1,0,0-2.6,0-2.6l.5-2.6.2-.7.6-2.1.7-2,.9-2,1-2,.4-.7,1.5-2.5,1.7-2.4,1.9-2.3,2.1-2.2.6-.6,1.7-1.6,1.7-1.6,1.8-1.5,1.9-1.4,2.4-1.8,1.7-1.3,1.7-1.3,1.6-1.3,1.6-1.4,1.4-1.3,2.1-1.9,2.1-1.9,2-2,2-2,1.9-2,1.1-1.2,1.1-1.2,1.1-1.2,1.1-1.2,3.6-4,1-1.1,1-1.1,1-1.1,1-1.2,2.9-3.3,1.4-1.6,1.4-1.6,1.4-1.6,1.3-1.6,1.6-1.9,1.6-1.9,1.6-1.9,1.6-1.9,1.5-1.9.5-.6,1.8-2.3,1.8-2.3,1.8-2.3,1.8-2.3,1.7-2.3,1.7-2.3,1.6-2.3,1.6-2.3,3.3-4.7,4.1-5.8,1.2-1.7,1.3-1.7,1.3-1.7,1.4-1.7,2.3-2.8,2.4-2.7,2.5-2.6,2.6-2.6,1.6-1.5,1.6-1.5,1.6-1.4,1.7-1.4,3.5-3,1.1-.9,1.1-1,1.1-1,1.1-1,2.5-2.3,2-1.9,1.9-2,1.9-2,1.8-2,1.9-2.3,1.8-2.4,1.7-2.4,1.6-2.5,1-1.6.9-1.5.9-1.5.8-1.5.8-1.5,2.3-4.4.7-1.2.7-1.2.8-1.2.8-1.2,2.3-3.3,1.4-1.7,1.5-1.6,1.7-1.5,1.8-1.4.4-.3,2.7-1.6,2.9-1.3,3-.9,3-.6,2.4-.2h2.4c0,0,2.3.4,2.3.4l2.2.6,3,1,1.4.5,1.4.5,1.3.6,1.3.7,5.5,3,.6.3.6.3.6.3.6.3,7.2,4.2.3.2.3.2.3.2.3.2,5.9,3.5,1.2.7,1.2.7,1.2.8,1.2.8,3.6,2.3,1.3.9,1.3.9,1.3.9,1.3.9,3,2.1,1.4,1,1.3,1,1.3,1.1,1.2,1.1,2.5,2.3,1.2,1.2,1.1,1.2,1,1.3.9,1.4,1.4,2.3.8,1.6.6,1.7.4,1.8v1.8c.1,0,.1.5.1.5l-.3,2.6-.8,2.6-1.2,2.5-1.7,2.4-1.7,1.8-1.9,1.6-2.1,1.4-2.3,1.1-2.6,1.1-1.8.7-1.8.6-1.9.5-1.9.4-4.3.8-1.8.3-1.8.2-1.8.2-1.8.2-3.5.2h-2.3c0,.1-2.3.2-2.3.2h-2.2c0,0-2.2,0-2.2,0h-1.8s-2.6,0-2.6,0h-2.6c0,0-2.6-.2-2.6-.2h-2.6c0-.1-4.4-.4-4.4-.4h-.9c0,0-.9,0-.9,0h-.9s-.9,0-.9,0h-4.2c0,0-2.7,0-2.7,0l-2.7.2-2.7.3-2.7.5-3,.7-3,.9-3,1-2.9,1.2-.6.3-2.2,1.1-2.2,1.2-2.1,1.2-2.1,1.3-2,1.3-1.9,1.3-1.9,1.3-1.8,1.4-1.8,1.4-2.6,2.1-1.5,1.3-1.5,1.3-1.5,1.3-1.5,1.3-3.2,3-1.3,1.2-1.3,1.2-1.3,1.2-1.3,1.2-2.5,2.4-1.7,1.7-1.8,1.6-1.8,1.6-1.8,1.6-2.6,2.4-2.6,2.3-2.6,2.3-2.7,2.3-2.9,2.5-.4.3-.4.4-.4.4-.4.4-7.6,6.6-.3.3-.3.3-.3.3-.3.3-6.7,5.7-.9.8-.9.8-.9.8-.9.8-3.2,2.9-2,1.7-2,1.7-2.1,1.7-2.1,1.6-2.7,2-2.7,1.9-2.8,1.8-2.8,1.8-2.6,1.5-1,.6-1,.6-1,.6-1,.6-4.3,2.3-2.1,1.2-2,1.3-2,1.4-1.9,1.5-.6.6-2.2,2.1-2,2.2-1.7,2.3-1.5,2.4-.6,1-.9,1.8-.7,1.9-.5,1.9-.3,1.9-.3,2.6v1.8c0,0,.2,1.8.2,1.8l.6,1.7.9,1.5,1.9,2.1,2.5,1.5,3,.9,3.2.2h.4s1.7-.2,1.7-.2l1.7-.4,1.7-.5,1.6-.7,6.1-3,.7-.3.6-.3.6-.3.6-.3,5.5-3,1.9-1,1.9-1.1,1.9-1.1,1.9-1.1,2.5-1.5,2.1-1.2,2.1-1.2,2.1-1.2,2.2-1.1,1.1-.6,2.7-1.3,2.7-1.3,2.7-1.2,2.7-1.2,2.8-1.1,2.9-1.1,2.9-1,2.9-.9h.5c0-.1,2.6-.9,2.6-.9l2.6-.7,2.6-.7,2.6-.6,3.4-.8,1.5-.3,1.5-.4,1.5-.4,1.4-.4h.5c0-.1,4-1.4,4-1.4l4-1.5,3.9-1.6,3.9-1.8,1.6-.8,1.6-.8,1.5-.8,1.5-.9,4-2.3,1.7-1,1.8-.9,1.8-.9,1.8-.9,1.2-.6,3.1-1.3,3.1-1.2,3.2-1,3.2-.8,2.6-.6,2.6-.5,2.6-.4,2.6-.3,2.9-.2h1.8c0-.1,1.8-.2,1.8-.2h1.8c0,0,1.8,0,1.8,0h1.5s3.2,0,3.2,0l3.2.2,3.2.3,3.1.4,2.4.4,2.4.5,2.3.6,2.3.6,5.4,1.6h.3c0,.1.5.2.5.2l6.5,2,1.8.5,1.8.5,1.8.5,1.8.5,4.5,1.2,1.2.3,1.2.4,1.2.4,1.2.4,3.4,1.1,2.2.8,2.1.9,2.1.9,2,1,.4.2,2.4,1.3,2.3,1.5,2.2,1.6,2,1.7,1.7,1.6,1.6,1.7,1.5,1.8,1.4,1.9.9,1.2,1,1.5,1,1.5.9,1.6.9,1.6,1.4,2.6.7,1.4.7,1.5.7,1.5.7,1.5,2.3,5.1.2.5.2.5.2.5.2.5,2,4.7.8,1.7.8,1.7.9,1.6,1,1.6,1.7,2.5,1.8,2.4,2,2.3,2.1,2.2,1.4,1.3,1.4,1.2,1.5,1.2,1.5,1.1,2.1,1.5,1.6,1.1,1.6,1.1,1.6,1,1.7,1,1.5.9,2,1.2,2.1,1.2,2.1,1.1,2.1,1.1,1.5.8,1.8.9,1.8.9,1.8.9,1.9.9,5.9,2.7,6.1,2.8,1.8.8,1.7.8,1.7.9,1.7.9,1.5.8,2.2,1.2,2.2,1.2,2.1,1.3,2.1,1.3,2.3,1.5,2.2,1.5,2.2,1.6,2.2,1.7,1.9,1.5,1.8,1.5,1.8,1.5,1.7,1.5.7.6,1.7,1.5,1.6,1.6,1.6,1.6,1.6,1.6.5.6,1.6,1.7,1.6,1.7,1.6,1.8,1.5,1.8.4.5,1.5,1.8,1.4,1.8,1.4,1.8,1.4,1.8.9,1.1,1.2,1.6,1.2,1.6,1.1,1.6,1.1,1.6,2.1,3.1.6.9.6.9.6.9.6.9,3.6,5.4.3.5.3.5.3.5.3.5,3.8,5.5.6.8.6.8.6.8.6.8,2.9,4,.9,1.2.9,1.1.9,1.1,1,1.1,2.2,2.5,1.2,1.3,1.3,1.3,1.4,1.2,1.5,1.1,1.7,1.2,1.8,1.2,1.9,1,2,.8,2.1.7.9.2,2.6.6,2.7.3h2.7s2.8-.2,2.8-.2l2.8-.5,2.8-.8,2.7-1,2.6-1.3.6-.3,2.2-1.3,2.1-1.5,2-1.6,1.8-1.8.9-1,1.7-1.9,1.5-1.9,1.4-2,1.2-2.1.6-1.2,1.1-2.1,1-2.2.8-2.2.7-2.2.3-1.1.6-2.3.5-2.3.4-2.3.2-2.3v-1c0,0,.2-2.3.2-2.3v-2.3s0-2.3,0-2.3l-.2-2.3v-1c0,0-.4-2.2-.4-2.2l-.4-2.2-.4-2.2-.5-2.1-.3-1.2-.6-2-.6-2-.7-2-.7-1.9-.6-1.6-.7-1.8-.8-1.8-.8-1.8-.8-1.8-1-2.1-.8-1.6-.8-1.6-.8-1.6-.8-1.6-1.2-2.3-.9-1.6-.9-1.6-.9-1.5-.9-1.5-1.4-2.4-.9-1.5-.9-1.5-1-1.5-1-1.5-1.3-2-1.1-1.6-1.2-1.6-1.2-1.6-1.3-1.5-.8-1-1.5-1.7-1.6-1.7-1.7-1.6-1.7-1.6-2.1-1.7-2.2-1.6-2.2-1.5-2.3-1.5-1-.6-1.6-.9-1.6-.9-1.7-.9-1.7-.8-6.1-2.9-2.4-1.1-2.6-1.8-1.5-2.6-.3-3Z"/>
    <path id="path2" class="st2" d="M788.5,282.1l-1.6.9-1.6.9-1,1.5v1.6c-.1,0,.7,1.3.7,1.3l1.8,1.5.5.6.4.7.2.7v.8c0,0,.1,5.7.1,5.7v1.1c0,0-.2,1.1-.2,1.1l-.3,1.1-.4,1.1-1.5,3.4-1.1,1.7-1.6,1.4-2,1-2.1.5h-2s-1.8-.6-1.8-.6l-1.5-1-1-1.4-1.7-3.7-.2-.4v-.4c-.1,0-.3-.4-.3-.4v-.4c-.1,0-1.1-3.7-1.1-3.7l-.9-2.3-1.3-2.1-1.8-1.8-2.1-1.5-2-.9-2.1-.7-2.3-.4h-2.4c0-.1-5.7,0-5.7,0h-.4s-.4,0-.4,0h-.4s-.4,0-.4,0h-1c0,0-4.9.2-4.9.2h-4.9c0-.1-4.8-.4-4.8-.4l-4.7-.6-1.4-.2h-.3s-2.7-.4-2.7-.4l-4.1-.5-4.1-.5-4.2-.4-4.2-.4h-1.3c0-.1-.8-.2-.8-.2h-.8c0,0-.8-.1-.8-.1h-.8c0,0-4.9-.6-4.9-.6l-2.4-.2h-2.4c0-.1-2.4-.2-2.4-.2h-2.4s-3.3,0-3.3,0l-3.3.2-3.3.4-3.3.5h-.5c0,0-2.2.5-2.2.5l-2.2.4-2.2.5-2.2.5-4.3,1.1-1.4.4-1.4.3-1.4.3-1.4.3-6.6,1.3-1.1.2-1.1.3-1.1.3-1,.4-3.8,1.5-2.3,1.1-2.1,1.5-1.7,1.8-1.3,2.1-.7,2-.3,2,.2,2,.6,1.8,1.5,3.1.4.7.4.7.5.7.5.7,3.2,4,.8,1.2.5,1.3.2,1.4-.2,1.5-.2,1.2-.8,2-1.4,1.8-1.9,1.4-2.2.9-1.7.2h-1.7c0-.1-1.5-.6-1.5-.6l-1.3-.8-4.1-3.2-.4-.3-.4-.3-.4-.3-.4-.3-2.4-1.4-2.7-1.3-2.9-.8-3.1-.3h-3.2c0,.1-2.1.5-2.1.5l-2.1.5-2,.7-1.9.9-5.6,2.9-.6.3-.6.3-.6.3-.5.3-8.1,4.6-.6.3-.6.4-.6.4-.6.4-4.6,3.2-1.7,1.5-1.4,1.7-.9,1.9-.5,1.9v1.8l.5,1.7.9,1.6,1.3,1.3,2.5,1.9,1.1.8,1.1.7,1.2.6,1.3.5,7.1,2.3h.3c0,0,.3.2.3.2h.3c0,0,.3.2.3.2l7.9,2.4.9.3.9.4.9.4.8.5,2.8,1.8,1.6,1.4,1,1.8.4,2-.2,2.1-.4,1.3-.7,1.3-.9,1.2-1.1,1.1-3,2.7-1.5,1.5-1.2,1.7-.9,1.8-.5,1.9v2.1c-.1,0,.2,2,.2,2l.8,1.8,1.2,1.6,2.2,2.2.8.8.9.7,1,.7,1,.6,5.4,3,.8.5.8.5.8.5.7.5,3.7,2.5,1.5,1.1,1.3,1.3,1.2,1.4,1,1.6,1.2,2.5.7,2.7.2,2.8-.2,2.8-.4,1.8-.6,1.8-.8,1.8-.9,1.7-3.6,6v.2c0,0-2.2,3.5-2.2,3.5l-1.9,2.9-2,2.9-2.2,2.8-2.4,2.7-1.3,1.4-.8.9-.8.8-.9.8-.9.8-4.1,3.6-1.3,1.3-1.1,1.4-1,1.4-.8,1.5-1.1,2.4-.5,1.8v1.8c0,0,.3,1.7.3,1.7l.9,1.6,1.7,1.6,2.2,1,2.5.3,2.6-.4,2.1-.8,1.9-1.2,1.6-1.5,1.2-1.8,2.4-4.7.2-.5.2-.5.2-.5.2-.5,2.1-5.9.6-1.5.7-1.5.8-1.5,1-1.4,2.3-3.1,1.2-1.4,1.4-1.3,1.6-1.1,1.7-.9,3.1-.9,3.2-.2,3,.5,2.6,1.2,1.6,1.1.8.6.7.6.6.7.6.7,3.4,4.6.6.9.6.9.6.9.6.9.2.4,1.7,3.1,1.4,3.2,1.2,3.3.9,3.4.3,1.4.3,1.4.2,1.4.2,1.4.3,2.7.2,2.2v2.2c.1,0,.2,2.2.2,2.2v2.2s-.2,2.8-.2,2.8l-.3,2.8-.5,2.8-.6,2.8-1.1,4.3v.2s-1.3,5.3-1.3,5.3l-.4,2.3v2.3c-.1,0,0,2.3,0,2.3l.4,2.2.8,2.4,1.1,2.2,1.4,2.1,1.7,1.9,1.6,1.5.9.9.9,1,.8,1,.8,1,.5.8,1.5,2.6,1.1,2.8.7,3,.3,3.1v1.8s-.2,1.8-.2,1.8l-.3,1.9-.5,1.8-1.4,4.6-.3.9-.3.9-.4.9-.4.9-1.8,3.9-1.1,2-1.4,1.8-1.7,1.7-2,1.5-.8.5-2.5,1.3-2.6.9-2.7.4h-2.7c0,0-2.5-.6-2.5-.6l-2.2-1-1.9-1.4-1.4-1.8-.4-.7-.9-1.7-.5-1.8-.2-1.9v-2c.1,0,.8-4.6.8-4.6v-.7c.1,0,.2-.7.2-.7v-.7c.1,0,.3-.7.3-.7l.7-2.8.7-3,.6-3,.5-3,.3-3v-1.1c.1,0,.2-1.5.2-1.5v-1.5c.1,0,.2-1.5.2-1.5v-1.5c0,0,.1-1.9.1-1.9v-2.6c.1,0,.3-2.6.3-2.6l.2-2.6.3-2.6.4-2.5.4-2.5.5-2.5.6-2.5.6-2.7.3-1.2.3-1.2.3-1.2.3-1.2.8-4.1.4-1.8.3-1.8.3-1.8.3-1.8.5-4.1v-1.2c.1,0,.2-1.2.2-1.2v-1.2c0,0,0-1.2,0-1.2v-6.4s0-.6,0-.6v-.6c-.1,0-.3-.6-.3-.6l-.2-.5-1.8-3.7-1-1.1-1.5-.5-1.7.2-1.6.8-.5.4-.4.5-.3.5-.2.6-1.7,5.9-.5,1.5-.6,1.5-.7,1.5-.9,1.4-.2.3-2,2.6-2.3,2.4-2.6,2.2-2.9,1.9-1.9,1.1-1.1.6-1.1.6-1.1.5-1.1.5-5.6,2.4-1.6.7-1.6.7-1.6.7-1.6.8-5.5,2.7-1.1.5-1.1.6-1.1.6-1.1.6-5.9,3-1.3.7-1.3.7-1.3.7-1.3.8-3.8,2.3-1.9,1.2-1.8,1.3-1.7,1.4-1.6,1.5-1.1,1.1-1.8,1.9-1.6,2.1-1.4,2.2-1.2,2.2-1,2.5-.7,2.5-.3,2.5v2.5s.1,2.8.1,2.8v1c0,0,.2,1,.2,1v1c.1,0,.3,1,.3,1l.5,2.3.4,2.7v2.7c.1,0,0,2.8,0,2.8l-.5,2.8-.6,2.2-.7,2.2-.9,2.2-1.1,2.1-1.4,2.5-.8,1.4-.9,1.4-.9,1.4-.9,1.4-.3.4-2.2,2.9-2.4,2.9-2.5,2.8-2.7,2.7-1.5,1.4-1.5,1.4-1.6,1.3-1.6,1.3-2.9,2.3-1.6,1.2-1.5,1.3-1.5,1.3-1.5,1.3-2.7,2.7-2.6,2.8-2.4,2.9-2.2,3-2.1,3-.2.3-4.1,5.6-1.3,1.7-1.4,1.6-1.5,1.6-1.5,1.5-.9.9-2.3,2-2.4,1.8-2.6,1.6-2.7,1.4-2.6,1.1-2.7,1-2.7.8-2.7.6-2.8.5-1.6.3-1.6.2-1.6.2h-1.6c0,.1-4.4.4-4.4.4h-2c0,.1-2,.3-2,.3l-2,.2-2,.3-3.4.5-2.1.3-2.1.4-2.1.5-2.1.6-3.5,1-1.8.6-1.8.7-1.7.8-1.7.9-1.8,1-2.4,1.6-2.1,1.8-1.8,2.1-1.5,2.2-1.1,2.4-.7,2.5-.3,2.5.2,2.4v.3c0,0,.6,2.1.6,2.1l.9,2,1.2,1.8,1.5,1.6.4.4,1.9,1.5,2.1,1.2,2.3,1,2.5.7h.3c0,0,2.6.4,2.6.4h2.7c0,0,2.7,0,2.7,0l2.7-.5,1.7-.4,2.1-.5,2.1-.7,2-.8,2-.9,6.5-3.1h.3c0-.1.4-.3.4-.3l6-2.8,2.3-1,2.4-.9,2.4-.9,2.4-.8,1.3-.4,2.6-.7,2.7-.5,2.7-.4,2.7-.2h1c0,0,2.6-.1,2.6-.1h2.6c0,0,2.5.4,2.5.4l2.4.4,2,.4,1.9.5,1.8.7,1.7.8,1.6.9,1.3.9,1.8,1.5,1.5,1.7,1.1,2,.7,2.1.3,2.4v2.4c-.1,0-.7,2.4-.7,2.4l-1,2.4-1,2-.7,1.3-.8,1.3-.9,1.2-1,1.2-2.6,3-1.5,1.6-1.7,1.4-1.9,1.2-2,1.1-3.2,1.2-3.3.7h-3.3c0,.1-3.2-.3-3.2-.3l-2.3-.5-.9-.2-.9-.2h-.9c0-.1-1-.2-1-.2l-3.1-.2h-3.1c0-.1-3.2-.1-3.2-.1l-3.2.2-3.2.3-4.3.5h-.5c0,0-.5.1-.5.1h-.5c0,0-.5,0-.5,0l-7,.7-1.9.2-1.9.3-1.9.3-1.9.3-3.9.9-3.9,1.1-3.8,1.3-3.8,1.5-1.8.8-1.7.8-1.7.8-1.7.9-3.9,2-1.7.9-1.7.8-1.8.8-1.8.7-2.2.8-2.7.9-2.8.7-2.8.5-2.8.3h-2.9c0,.1-2.9,0-2.9,0l-2.8-.3-2.8-.5-1.2-.3-2-.5-1.9-.6-1.9-.7-1.8-.8-5.8-2.8h-.2c0,0-4.6-2.3-4.6-2.3l-2.4-1.1-2.5-1-2.5-1-2.6-.9-2.6-.8-2.6-.7-2.6-.6-2.7-.5-1.3-.2-2.1-.4-2.1-.3-2.1-.3-2.1-.3h-.4s-3.2-.4-3.2-.4l-3.3-.2h-3.3c0-.1-3.3-.2-3.3-.2h-3.8s-.5,0-.5,0h-.5s-.5,0-.5,0h-.5s-5.9-.5-5.9-.5l-2.1-.3-1.9-.6-1.7-.9-1.4-1.2-.9-.9-1.2-1.7-.6-2v-2.1s.6-2.1.6-2.1l1.3-2.1,1.8-1.9,2.3-1.4,2.5-.9,1.2-.3,2-.3h2s1.9.2,1.9.2l1.8.5,2.3.9,2,.7,2.2.4,2.2.2h2.3s1.9-.2,1.9-.2l2.5-.3,2.4-.5,2.4-.6,2.4-.8,5.5-2.1.5-.2.5-.2.5-.2.5-.2,3.4-1.2,3.5-1.2,3.5-1.1,3.5-1,3.6-.8,2.2-.5,2.2-.4,2.2-.4,2.2-.3,4.5-.6,1.4-.2,1.4-.3,1.4-.3,1.4-.4,1.8-.5,3.3-1.1,3.2-1.5,3-1.8,2.8-2.1,1.7-1.5,1.5-1.6,1.4-1.7,1.2-1.7,1.6-2.4,1.1-1.6,1.2-1.6,1.3-1.6,1.4-1.5,2.6-2.6,2.8-2.4,3-2.2,3.2-2,1.3-.8,1.2-.7,1.2-.6,1.2-.6,1.2-.6,4.9-2.3,1.7-.9,1.6-1,1.5-1.1,1.4-1.2,2.9-2.4,3.3-1.9,3.6-1.3,3.7-.7h1c0-.1,1.2-.2,1.2-.2h1.2s1.2,0,1.2,0h1.2c0,0,3.7.4,3.7.4h2.6c0,.1,2.6,0,2.6,0l2.6-.4,2.6-.6,2.9-1,2.8-1.2,2.7-1.5,2.5-1.7,2.2-1.7,1-.8,1-.8,1-.9.9-.9,4.1-4.1,1.2-1.1,1.2-1.1,1.2-1.1,1.2-1.1,2.7-2.4,1.8-1.6,1.8-1.6,1.8-1.6,1.8-1.5,4.8-4,.3-.2.3-.2.3-.2.3-.2,4.2-3.4,2.1-1.8,2.1-1.9,2-2,1.9-2,.2-.3,1.8-2.1,1.7-2.2,1.6-2.2,1.4-2.3,1.8-3,.5-1,.5-1,.4-1,.4-1,1.4-4,.4-1.9v-1.9s-.4-1.8-.4-1.8l-.8-1.6-1.5-1.6-2-1.2-2.3-.7-2.6-.2-2.2.2-2,.6-1.9.9-1.8,1.1-2.8,2.1-1.4,1.1-1.3,1.2-1.2,1.2-1.1,1.3-3,4-.9,1.2-.9,1.2-1,1.1-1,1.1-1.4,1.5-2.3,2.3-2.4,2.1-2.6,2-2.7,1.8-2.3,1.3-2.3,1.2-2.4,1.1-2.4.9-1.5.6-2.4.8-2.4.7-2.4.6-2.4.5-1.6.3-2.5.4-2.5.3-2.5.2h-2.5c0,.1-1.1.1-1.1.1h-2.6s-2.6-.2-2.6-.2l-2.6-.3-2.5-.5-2.8-.7-2.7-.9-2.6-1-2.5-1.3-2.1-1.2-1.9-1.3-1.8-1.4-1.7-1.5-1-1-1.4-1.4-1.3-1.5-1.2-1.5-1.2-1.6-.8-1.2-1.2-1.8-1.1-1.9-1.1-1.9-1-2-.3-.7-.9-2.1-.9-2.1-.8-2.1-.7-2.2-.2-.5-.7-2.2-.6-2.3-.5-2.3-.4-2.3v-.5c0,0-.4-2.3-.4-2.3l-.2-2.3-.2-2.3v-2.4c0,0,0-.4,0-.4v-2.4s.2-2.4.2-2.4l.2-2.4.3-2.5.5-2.6.6-2.5.7-2.5.8-2.5.9-2.5,1-2.5,1.1-2.5,1.2-2.4.2-.4,1.2-2.2,1.3-2.2,1.3-2.2,1.4-2.1,1.1-1.6,1.2-1.7,1.3-1.7,1.3-1.6,1.4-1.6,1.9-2.1,1.5-1.6,1.6-1.5,1.7-1.5,1.8-1.4,1.5-1.1,2.2-1.5,2.4-1.3,2.5-1.2,2.6-1,3-.9,3-.5,3-.3h2.9s2.6.3,2.6.3l2.5.5,2.4.8,2.3,1,.7.4,2,1.1,1.8,1.3,1.7,1.5,1.5,1.6,1.3,1.6,1.1,1.3,1,1.4.9,1.4.8,1.5,3,5.6,2.9,5.5.8,1.5.9,1.5,1,1.4,1,1.4,1.2,1.6,1.4,1.6,1.5,1.5,1.6,1.4,1.8,1.3.6.4,2.1,1.3,2.3,1.2,2.4,1,2.5.8,2.7.6,2.8.4,2.8.2h2.9s.5,0,.5,0l2.6-.2,2.6-.4,2.6-.5,2.6-.7,1.1-.3,2.5-.8,2.5-1,2.4-1.1,2.4-1.2,1.1-.6,2.3-1.4,2.1-1.5,2-1.6,1.9-1.8,2.1-2.3,1.8-2.4,1.6-2.5,1.3-2.6.2-.5.8-1.9.6-1.9.5-1.9.3-1.9.6-5v-.6c0,0,.2-.6.2-.6v-.6c.1,0,.2-.6.2-.6l.8-4.2.6-2.3.8-2.3,1.1-2.2,1.3-2.2,1.6-2.2,1.9-2.1,2.1-2,2.3-1.8,4.3-3,.3-.2.3-.2.2-.2.2-.2,1.2-2.1v-2.2s-1.1-1.8-1.1-1.8l-2.1-1-.8-.2h-.7c0-.1-.8-.1-.8-.1h-.8c0,0-.8.2-.8.2l-5.1,1.3-2.3.5-2.3.3-2.3.2h-2.2s-5.8-.3-5.8-.3h-.5s-.5,0-.5,0h-.5s-.5,0-.5,0h-.7s-4.8,0-4.8,0l-4.8.2-4.9.4-4.9.7h-.8c0,.1-.5.2-.5.2h-.5c0,0-.5.2-.5.2h-.5c0,0-5.6.8-5.6.8l-2.4.2h-2.4s-2.4-.2-2.4-.2l-2.3-.4-2.8-.8-2.6-1.1-2.4-1.3-2.2-1.6-.4-.3-1.4-1.3-1.3-1.4-1.1-1.5-1-1.6-1.7-3.1-.6-1.1-.5-1.1-.5-1.1-.5-1.1-.9-2.4-.8-2.2-.7-2.2-.7-2.3-.6-2.3-1.1-4.4v-.3c0,0-.2-.4-.2-.4l-1.1-4.1-.8-2.4-1-2.3-1.2-2.2-1.4-2.1-1.4-1.7-1.6-1.6-1.7-1.5-1.9-1.4-1.8-1.2-1.4-.9-1.4-.9-1.5-.8-1.5-.8-1.9-.9-2.3-1-2.3-.9-2.4-.8-2.4-.8-2.8-.7-2.8-.6-2.9-.5-2.9-.4h-.6c0,0-2.3-.3-2.3-.3l-2.3-.2h-2.3c0-.1-2.4-.2-2.4-.2h-5.6s-.6,0-.6,0h-1.1s-.6,0-.6,0h-4s-3.2,0-3.2,0h-3.2c0,0-3.2-.2-3.2-.2l-3.1-.2-2.5-.2-2.5-.2-2.5-.3-2.5-.3-3.9-.5h-1.2c0-.1-1.2-.3-1.2-.3h-1.2c0-.1-1.2-.2-1.2-.2l-3.3-.3-2.8-.2h-2.8c0-.1-2.9-.2-2.9-.2h-2.9s-2.9.2-2.9.2l-2.9.2-2.9.3-2.9.4-1.6.2-2.1.3-2.1.4-2.1.4-2.1.4-2.2.5-2.6.5-2.6.5-2.6.4-2.6.4-3.7.5-1.4.2h-1.4c0,.1-1.4.3-1.4.3h-1.4c0,0-6.2.4-6.2.4h-1.3c0,.1-1.3.3-1.3.3l-1.3.3-1.3.4-3.3,1.6-2.9,2.2-2.4,2.6-1.7,3-.8,2-.2.6-.2.6-.2.6-.2.6-.5,1.7-1.2,3.2-1.7,3.1-2.3,2.9-2.7,2.6-1.4,1.1-1.4,1-1.5.9-1.6.8-3.6,1.7-2,1-2,1.1-1.9,1.1-1.9,1.2-2.9,1.9-1.7,1.1-1.6,1.2-1.6,1.2-1.6,1.2-4.4,3.5-.9.7-.9.7-.9.7-.9.7-5.5,4.2-1.1.8-1.1.8-1.1.9-1.1.9-1.4,1.1-2.7,2.4-2.6,2.4-2.5,2.5-2.4,2.6-1.4,1.7-1.4,1.7-1.4,1.7-1.3,1.7-2,2.8-1,1.4-1.1,1.4-1.1,1.4-1.1,1.4-2.4,2.9-1.3,1.6-1.4,1.5-1.5,1.5-1.5,1.4-1.9,1.8-1.8,1.6-1.9,1.5-2,1.4-2.1,1.3-1.4.8-2.3,1.2-2.4,1-2.5.9-2.5.7-1.7.4-2.3.4-2.3.2h-2.3s-2.2-.3-2.2-.3l-2.2-.4-1.9-.5-1.7-.8-1.5-1-1.3-1.2-1.4-2.2-.7-2.6v-2.7c0,0,.9-2.7.9-2.7v-.3c.1,0,1-1.7,1-1.7l1.2-1.6,1.4-1.5,1.6-1.3,4.2-3,1-.7,1-.6,1-.6,1-.6,5.8-3.1,1.4-.7,1.4-.7,1.4-.7,1.4-.7,3.8-1.8,2.1-1,2.2-1,2.2-1,2.2-1,3.7-1.6,1.5-.7,1.5-.7,1.5-.7,1.5-.7,3.8-2.1,3.7-2.2,3.6-2.4,3.5-2.5,1.5-1.1.5-.4.5-.4.5-.4.5-.4,5.1-4,1.6-1.2,1.6-1.2,1.6-1.3,1.6-1.3,5.6-4.5.3-.2.3-.2.3-.2.3-.2,2.1-1.6,3.2-2.7,2.9-2.9,2.6-3.1,2.3-3.3.8-1.3.7-1.4.7-1.4.6-1.4,1.9-4.6.6-1.3.6-1.3.6-1.3.7-1.3,2.4-4.4.8-1.3.9-1.3,1-1.3,1.1-1.2,3-2.8,3.4-2.3,3.7-1.9,3.9-1.3,1.4-.4.9-.2.9-.2.9-.2h.9c0-.1,4-.7,4-.7l2.9-.5,2.9-.5,2.9-.6,2.9-.7,4.8-1.2h.5c0-.1.5-.2.5-.2h.5c0-.1.5-.2.5-.2l2.2-.5,4.2-.9,4.2-.7,4.2-.5,4.2-.2h1.6s1.6,0,1.6,0h1.6s1.6,0,1.6,0l3.1.2h2.5c0,.1,2.5.2,2.5.2h2.6s2.6,0,2.6,0h2.4s2,0,2,0h2c0,0,2-.1,2-.1h2c0,0,1.9-.2,1.9-.2l2.9-.2,2.9-.2,2.9-.2,2.9-.2h.8c0,0,2.5-.3,2.5-.3l2.6-.3,2.5-.3,2.6-.3,3.3-.5,3.3-.5,3.3-.6,3.3-.6,3.1-.6,1-.2,1-.2,1-.2,1-.2,5.2-.8,2.2-.3,2.2-.2h2.2c0,0,2.2,0,2.2,0h.5s3.2.3,3.2.3l3.1.5,3,.8,2.9,1,2,.9,1.9,1,1.8,1.2,1.7,1.3,3.6,2.9.4.3.4.3.4.3.4.3,3.8,2.8,1.8,1.3,1.8,1.2,1.9,1.1,2,1,1.9.9,1.7.9,1.6,1,1.6,1.1,1.5,1.2,2.2,2.1,1.9,2.4,1.5,2.6,1.2,2.7.5,1.5.3.9.3,1,.3,1,.2,1,1,4.8.4,1.4.6,1.3.7,1.2.9,1.1,1.4,1.6,1.7,1.5,2.1,1,2.4.5h2.6s2.3-.4,2.3-.4l2.2-.8,2.1-1.2,1.8-1.5,2-1.9,1.1-1.1,1-1.2.9-1.2.8-1.3,1.4-2.5.9-2.2.5-2.3v-2.2s-.6-2.1-.6-2.1l-.8-1.6-1.1-1.5-1.4-1.2-1.7-1-5-2.4-.3-.2-.3-.2h-.3c0-.1-.3-.3-.3-.3l-3.2-1.3-2.9-1.2-2.9-1.3-2.9-1.3-2.8-1.4-1.8-.9-1-.5-1-.5-1-.5-1-.5-6-2.9-.8-.4-.7-.4-.7-.4-.7-.4-4-2.4-1.6-1.1-1.4-1.2-1.2-1.4-1.1-1.5-.4-.6-1-2.1-.6-2.2-.2-2.4.2-2.4.6-2.3,1-2.2,1.3-2.1,1.6-2,.7-.7,1.7-1.6,1.8-1.5,2-1.4,2.1-1.2,2.2-1.1,2.1-.9,2.1-.8,2.1-.7,2.2-.5,1.3-.3,2.8-.4h2.8c0-.1,2.7.1,2.7.1l2.6.5,2.3.8,2.1,1,1.9,1.2,1.7,1.5,1,1,1.3,1.4,1.2,1.5,1,1.6.8,1.7,1.6,3.6.3.8.3.8.3.8.3.8,1.4,3.6,1.8,3.5,2.1,3.3,2.4,3.1.2.3.5.6.5.6.5.5.5.5,3.2,3.2,1.3,1.4,1.1,1.5.9,1.6.8,1.7.8,2.6.4,2.7v2.8s-.5,2.8-.5,2.8l-.2.7-.5,1.7-.6,1.7-.7,1.7-.9,1.7-2.2,4-.7,1.2-.7,1.2-.7,1.1-.7,1.1-3.3,4.9-.7,1.1-.6,1.1-.5,1.2-.5,1.2-.7,1.9-.6,2.5v2.5c-.1,0,.2,2.4.2,2.4l.9,2.2,1.1,1.7,1.4,1.5,1.7,1.2,1.9,1,3.3,1.3,1.2.4,1.2.4,1.2.3,1.2.3,6.3,1.2,1,.2h1c0,.1,1,.3,1,.3h1c0,0,4.1.3,4.1.3h2.3s2.3-.4,2.3-.4l2.3-.7,2.2-1,1.6-.8,1.8-1.1,1.6-1.4,1.3-1.6.9-1.7.6-2.4v-2.4c0,0-.9-2.2-.9-2.2l-1.5-1.8-2.1-1.9-.6-.6-.6-.7-.5-.7-.5-.8-1.2-2.1-1.2-2.4-.9-2.5-.7-2.6-.4-2.7-.4-3.7v-.3s0-.3,0-.3v-.3s0-.3,0-.3v-1.7c-.1,0-.6-3.7-.6-3.7l-1-3.5-1.4-3.3-1.9-3.1-.6-1-.6-1-.6-1-.5-1-.2-.5-1.6-3-1.9-2.8-2.2-2.6-2.5-2.4-2-1.7-.2-.2-.3-.2-4.8-4.3-1.1-1.1-.9-1.2-.7-1.3-.6-1.4-.5-2.9.2-3.1,1-3.1,1.7-2.9.8-1.1.8-1,.8-1,.9-.9,1-.9,4.9-4.3,1-.8,1-.8,1-.8,1-.8,3.3-2.5,2-1.6,1.9-1.6,1.9-1.7,1.8-1.7,2.4-2.3,2.5-2.2,2.6-2.1,2.7-2,2.9-2.1.6-.4.6-.4.6-.4.6-.4,6.4-4.3,1.1-.7,1.1-.7,1.1-.7,1.1-.7,2.9-1.9,2.5-1.5,2.5-1.4,2.6-1.4,2.6-1.3,2.8-1.3,2.8-1.2,2.9-1.1,2.9-1.1.6-.2,2.5-.8,2.5-.8,2.5-.7,2.5-.7,5.1-1.3.7-.2.7-.2.7-.2.7-.2,5.3-1.4,2.4-.6,2.4-.6,2.4-.6,2.4-.5,3.4-.7,1.7-.3,1.7-.3,1.7-.3,1.7-.3,1.3-.2,3.4-.5,3.4-.7,3.4-.8,3.5-1,2.3-.8,2.2-.8,2.2-.9,2.1-.9,1.7-.8,2.5-1.1,2.5-1,2.6-.8,2.6-.7,3.1-.7,3.1-.5,3.1-.3h3.1c0-.1,1.6-.2,1.6-.2h1.8s1.8,0,1.8,0h1.8c0,0,1.8.2,1.8.2l1.7.2,3,.3,2.9.4,2.9.5,2.9.6,2.5.6,2.4.7,2.4.7,2.3.8,4.3,1.6.6.2.6.2.6.2.6.2,7.3,2.6.8.3.8.3.9.2.9.2,7.3,1.7.7.2.7.3.6.4.5.5,2.5,2.6.6,1.3-.2,1.5-1,1.4Z"/>
    <path id="path3" class="st4" d="M260.3,497.4c28.8-11.8,53.9,2.4,53.9,29.3,0,53.8-64.2,84.3-139.5,84.3s-70.6-12.1-70.6-30.8,5-18.3,27.1-16.3l129.5,11.5c17.1,1.5,24.7-6.5,24.7-14.8s-6.8-14.5-24.7-16.9l-105.4-13c-22.4-2.7-30-16.3-30-30.5s4.1-24.8,30-33.1l114.8-36.7c13.8-4.4,16.2-10.4,16.2-17.8-.3-9.5-9.1-10.9-16.5-8.9l-102.7,30.5c-20.9,6.2-60.3,19.8-62.7-20.1-1.5-23.7,17.7-32.8,42.1-32.8h109.2c31.2,0,46.8,14.5,46.8,34s-7.7,21.9-20.9,31.4l-87.7,61.2c-11.8,8.3-5.9,19.2,7.7,13.6l58.9-24.3ZM342.9,427c0-19.5,18.2-50,83.3-50,87.7.6,117.7,19.2,117.7,49.7s-6.2,22.8-27.4,32.5l-48.9,22.5c-3.8,1.8-5.6,4.1-4.7,7.7.6,2.7,2.9,5,9.4,5.3l24.1.9c33.8,1.2,50,18,50,58.3s-38.6,56.8-94.2,56.8c-65.9-.6-120.4-10.6-120.4-61.2s9.7-48.5,43.9-51.2l32.4-2.7c6.8-.6,9.1-3.8,9.1-7.7s-2.9-7.1-7.7-8.3c-49.2-12.4-66.8-26.3-66.8-52.7ZM462.4,508.6c-16.2-11.2-25.6-12.1-42.7,0l-58.6,42c-8.5,6.2-7.7,17.5,5,17.5l152.8-.9c11.8,0,13.2-9.8,4.4-16l-60.9-42.6ZM424.4,469.3c6.2,13.6,19.1,13.6,30.6,5.3l39.1-27.8c8.8-6.2,9.7-13.9-1.2-19.2l-71.8-34.9c-18.2-8.9-32.7-.9-25,15.4l28.3,61.2ZM662,377c55.9,0,107.4,37.9,107.4,63.9s-28.3,37.3-51.2,10.4l-43.3-50.9c-26.8-31.4-78.3,17.5-37.1,39.3l16.2,8.6c24.7,13.3,16.2,39.3-4.7,45.3l-53,14.8c-12.4,3.6-11.8,14.2-.3,21.3l95.1,58c13.5,8.3,20.9-.6,18.5-13.9l-5-28.1c-2.9-16.9-2.9-42.6,21.8-45.3,30-3.3,38.9,16,38.9,36.7,0,38.5-33.3,73.7-89.8,73.7s-115.1-50.6-115.1-121,32.1-112.7,101.5-112.7ZM941.1,497.4c28.8-11.8,53.9,2.4,53.9,29.3,0,53.8-64.2,84.3-139.5,84.3s-70.6-12.1-70.6-30.8,5-18.3,27.1-16.3l129.5,11.5c17.1,1.5,24.7-6.5,24.7-14.8s-6.8-14.5-24.7-16.9l-105.4-13c-22.4-2.7-30-16.3-30-30.5s4.1-24.8,30-33.1l114.8-36.7c13.8-4.4,16.2-10.4,16.2-17.8-.3-9.5-9.1-10.9-16.5-8.9l-102.7,30.5c-20.9,6.2-60.3,19.8-62.7-20.1-1.5-23.7,17.7-32.8,42.1-32.8h109.2c31.2,0,46.8,14.5,46.8,34s-7.7,21.9-20.9,31.4l-87.7,61.2c-11.8,8.3-5.9,19.2,7.7,13.6l58.9-24.3Z"/>
    <rect id="rect3" class="st3" x="266.9" y="208.7" width="518" height="87.5"/>
    <rect id="rect4" class="st1" x="266.9" y="208.7" width="518" height="87.5"/>
    <rect id="rect5" class="st3" x="117.6" y="684.3" width="872.4" height="87.5"/>
    <rect id="rect6" class="st1" x="117.6" y="684.3" width="872.4" height="87.5"/>
  </g>
  <g id="Layer_2">
    <g id="g2">
      <path id="path1-7" class="st0" d="M290.7,225.5c-1.7,0-3.1,0-3.1,0,0,0,1.4,2.3,4,6.5,3.9,6.1,6.3,10,6.5,10.9,0,.1,0,.3-.4.9-.9,1.6-3.6,5.8-8.2,12.8l-2.1,3.2h1.2c.7,0,7.4.1,14.9.1,7.6,0,16.5,0,19.9,0h6.2v19.4h3.8v-54h-19.9c-11,0-21.3,0-23,0ZM329.9,242.7v13.5h-17.6c-9.7,0-17.7,0-17.7-.1,0,0,.9-1.7,3.5-5.7,3.1-4.8,4.7-7.4,4.7-7.7s-1.4-2.4-4-6.5c-1.6-2.5-3.8-5.9-4.1-6.5l-.2-.3h.4c.7-.1,9.1-.2,22.1-.2h12.8s0,13.5,0,13.5Z"/>
    </g>
    <g>
      <path class="st0" d="M385.5,248.1c0-9.8,6-15.2,15.4-15.2s14.9,5.4,14.9,13.7v1h-7.1v-1.1c0-3.8-2.7-7.2-7.8-7.2s-8.3,3.4-8.3,8.7v9.3c0,5.3,3.2,8.7,8.3,8.7s7.8-3.4,7.8-7.1v-1.5h7.1v1.4c0,8.2-5.4,13.7-14.9,13.7s-15.4-5.4-15.4-15.2v-9.1Z"/>
      <path class="st0" d="M463.6,257l7.6,14.6h-8l-6.8-14h-6.2v14h-7.1v-37.9h16.5c7.1,0,12,4.7,12,11.9s-3.3,9.9-8.1,11.4ZM450.3,251.1h8.7c3.4,0,5.6-2.1,5.6-5.4s-2.2-5.4-5.6-5.4h-8.7v10.8Z"/>
      <path class="st0" d="M506.2,233.7v37.9h-7.1v-37.9h7.1Z"/>
      <path class="st0" d="M562.5,233.7v6.5h-11.3v31.4h-7.1v-31.4h-11.3v-6.5h29.7Z"/>
      <path class="st0" d="M596,233.7v37.9h-7.1v-37.9h7.1Z"/>
      <path class="st0" d="M623.8,248.1c0-9.8,6-15.2,15.4-15.2s14.9,5.4,14.9,13.7v1h-7.1v-1.1c0-3.8-2.7-7.2-7.8-7.2s-8.3,3.4-8.3,8.7v9.3c0,5.3,3.2,8.7,8.3,8.7s7.8-3.4,7.8-7.1v-1.5h7.1v1.4c0,8.2-5.4,13.7-14.9,13.7s-15.4-5.4-15.4-15.2v-9.1Z"/>
      <path class="st0" d="M699.2,233.7l10.5,37.9h-7.2l-2.2-8.5h-13l-2.2,8.5h-7.2l10.5-37.9h11ZM698.5,256.6l-4.5-17.1h-.5l-4.5,17.1h9.6Z"/>
      <path class="st0" d="M742.9,233.7v31.4h17.3v6.5h-24.4v-37.9h7.1Z"/>
    </g>
    <g>
      <path class="st0" d="M166.3,708.4c10,0,15.4,5.2,15.4,15.4v7.2c0,10.2-5.3,15.4-15.4,15.4h-12.8v-37.9h12.8ZM160.5,739.8h5.9c5.7,0,8.2-3.1,8.2-8.7v-7.6c0-5.5-2.6-8.7-8.2-8.7h-5.9v24.9Z"/>
      <path class="st0" d="M234,708.4v6.5h-17.5v9h16v6.5h-16v9.4h17.8v6.5h-24.9v-37.9h24.6Z"/>
      <path class="st0" d="M260.4,722.8c0-9.8,6-15.2,15.4-15.2s14.9,5.4,14.9,13.7v1h-7.1v-1.1c0-3.8-2.7-7.2-7.8-7.2s-8.3,3.4-8.3,8.7v9.3c0,5.3,3.2,8.7,8.3,8.7s7.8-3.4,7.8-7.2v-1.5h7.1v1.4c0,8.2-5.4,13.7-14.9,13.7s-15.4-5.4-15.4-15.2v-9.1Z"/>
      <path class="st0" d="M342.7,708.4v6.5h-17.5v9h16v6.5h-16v9.4h17.8v6.5h-24.9v-37.9h24.6Z"/>
      <path class="st0" d="M382.8,708.4l9,30.7h.5v-30.7h7.1v37.9h-12.1l-9-30.7h-.5v30.7h-7.1v-37.9h12.1Z"/>
      <path class="st0" d="M455.6,708.4v6.5h-11.3v31.4h-7.1v-31.4h-11.3v-6.5h29.7Z"/>
      <path class="st0" d="M502.5,731.7l7.6,14.6h-8l-6.8-14h-6.2v14h-7.1v-37.9h16.5c7.1,0,12,4.7,12,11.9s-3.3,9.9-8.1,11.4ZM489.2,725.8h8.7c3.4,0,5.6-2.1,5.6-5.4s-2.2-5.4-5.6-5.4h-8.7v10.8Z"/>
      <path class="st0" d="M556.3,708.4l10.5,37.9h-7.2l-2.2-8.5h-13l-2.2,8.5h-7.2l10.5-37.9h11ZM555.6,731.4l-4.5-17.1h-.5l-4.5,17.1h9.6Z"/>
      <path class="st0" d="M600.1,708.4v31.4h17.3v6.5h-24.4v-37.9h7.1Z"/>
      <path class="st0" d="M651.2,708.4v37.9h-7.1v-37.9h7.1Z"/>
      <path class="st0" d="M706.2,708.4v6.2l-18.5,25.4h18.6v6.4h-27.5v-6.2l18.5-25.4h-18v-6.4h26.8Z"/>
      <path class="st0" d="M752.4,708.4l10.5,37.9h-7.2l-2.2-8.5h-13l-2.2,8.5h-7.2l10.5-37.9h11ZM751.7,731.4l-4.5-17.1h-.5l-4.5,17.1h9.6Z"/>
      <path class="st0" d="M812.9,708.4v6.5h-11.3v31.4h-7.1v-31.4h-11.3v-6.5h29.7Z"/>
      <path class="st0" d="M846.5,708.4v37.9h-7.1v-37.9h7.1Z"/>
      <path class="st0" d="M889.6,707.6c9.4,0,15.4,5.4,15.4,15.2v9.1c0,9.8-6,15.2-15.4,15.2s-15.4-5.4-15.4-15.2v-9.1c0-9.8,6-15.2,15.4-15.2ZM881.2,732.1c0,5.2,3.1,8.6,8.3,8.6s8.3-3.4,8.3-8.6v-9.5c0-5.2-3.1-8.6-8.3-8.6s-8.3,3.4-8.3,8.6v9.5Z"/>
      <path class="st0" d="M944.8,708.4l9,30.7h.5v-30.7h7.1v37.9h-12.1l-9-30.7h-.5v30.7h-7.1v-37.9h12.1Z"/>
    </g>
    <rect class="st1" x="266.9" y="208.7" width="87.5" height="87.5"/>
  </g>
</svg>