<?xml version="1.0" encoding="UTF-8" standalone="no"?>
<!-- Created with Inkscape (http://www.inkscape.org/) -->

<svg
   width="210mm"
   height="297mm"
   viewBox="0 0 210 297"
   version="1.1"
   id="svg1"
   xmlns="http://www.w3.org/2000/svg"
   xmlns:svg="http://www.w3.org/2000/svg">
  <defs
     id="defs1" />
  <g
     id="layer1">
    <path
       d="m 87.239134,12.277463 c 11.699875,0 23.399756,0 35.454176,0 0,13.62075 0,27.2415 0,41.275 -1.04775,0 -2.0955,0 -3.175,0 0,-4.80219 0,-9.60438 0,-14.55208 -10.65214,0 -21.304259,0 -32.279176,0 0.399616,-0.99904 0.739433,-1.70513 1.318783,-2.57866 0.158616,-0.24066 0.317232,-0.48132 0.480655,-0.72928 0.17017,-0.25627 0.34034,-0.51254 0.515666,-0.77657 0.356675,-0.5446 0.71324,-1.08927 1.069702,-1.63401 0.733504,-1.11675 1.473946,-2.22852 2.217953,-3.3383 0.342932,-0.51976 0.685724,-1.03963 1.028361,-1.55959 0.165501,-0.24265 0.331003,-0.48529 0.50152,-0.73529 0.148618,-0.22734 0.297237,-0.45468 0.45036,-0.68891 0.199043,-0.2973 0.199043,-0.2973 0.402107,-0.60061 0.288196,-0.60134 0.288196,-0.60134 0.01324,-1.28571 -0.339326,-0.65185 -0.70151,-1.266 -1.102646,-1.88193 -0.164734,-0.25443 -0.329468,-0.50887 -0.499194,-0.77101 -0.189973,-0.29127 -0.379946,-0.58254 -0.575676,-0.88263 -0.222376,-0.34372 -0.444575,-0.68754 -0.666626,-1.03147 -1.023036,-1.58388 -2.047898,-3.16655 -3.077848,-4.74596 -0.134465,-0.20664 -0.268929,-0.41328 -0.407469,-0.62619 -0.260122,-0.3997 -0.52073,-0.79908 -0.781864,-1.19812 -0.887026,-1.36433 -0.887026,-1.36433 -0.887026,-1.65868 z m 5.55625,2.91042 c 1.033239,1.87715 1.033239,1.87715 2.148706,3.68763 0.143759,0.22032 0.287517,0.44065 0.435632,0.66766 0.145805,0.22169 0.29161,0.44338 0.441834,0.67179 0.144782,0.22169 0.289563,0.44338 0.438733,0.67179 0.144099,0.22033 0.288199,0.44066 0.436666,0.66766 0.140816,0.21692 0.281633,0.43384 0.426718,0.65733 0.294354,0.44 0.599855,0.8727 0.914931,1.29811 0.150026,0.206 0.300051,0.412 0.454623,0.62425 0.137812,0.18179 0.275623,0.36358 0.41761,0.55087 0.234547,0.55707 0.234547,0.55707 0.06834,1.19508 -0.396605,0.74839 -0.823566,1.45747 -1.284869,2.16802 -0.182129,0.28223 -0.364257,0.56447 -0.551905,0.85525 -0.190314,0.29246 -0.380627,0.58492 -0.576709,0.88625 -0.373817,0.57681 -0.74727,1.15386 -1.120345,1.73116 -0.248508,0.38226 -0.248508,0.38226 -0.502036,0.77224 -0.736336,1.16485 -1.438924,2.35073 -2.147931,3.53241 8.905878,0 17.811748,0 26.987508,0 0,-6.81038 0,-13.62075 0,-20.6375 -8.90588,0 -17.81176,0 -26.987508,0 z"
       fill="#fa4e51"
       id="path3"
       style="stroke-width:0.264583" />
  </g>
</svg>
