<svg id="Layer_1" data-name="Layer 1" xmlns="http://www.w3.org/2000/svg" viewBox="0 0 780.7 555.84"><defs><style>.cls-1{fill:#666766;}.cls-1,.cls-11,.cls-14,.cls-16,.cls-18,.cls-19,.cls-20,.cls-21,.cls-25,.cls-26,.cls-27,.cls-28,.cls-8{stroke:#231f20;stroke-miterlimit:10;}.cls-2,.cls-23,.cls-28,.cls-29,.cls-3{isolation:isolate;}.cls-3{font-size:7.3px;}.cls-23,.cls-29,.cls-3{fill:#231f20;font-family:Arial-BoldMT, Arial;font-weight:700;}.cls-4{letter-spacing:-0.07em;}.cls-5{letter-spacing:0em;}.cls-6{letter-spacing:-0.07em;}.cls-7{letter-spacing:0em;}.cls-8{fill:#fdcc9a;}.cls-9{letter-spacing:-0.06em;}.cls-10{letter-spacing:-0.04em;}.cls-11{fill:#f89938;}.cls-12{letter-spacing:-0.02em;}.cls-13{letter-spacing:-0.02em;}.cls-14{fill:#9c9;}.cls-15{letter-spacing:-0.04em;}.cls-16{fill:#cb9866;}.cls-17{letter-spacing:-0.02em;}.cls-18{fill:#aee2fa;}.cls-19{fill:#f3ed6e;}.cls-20{fill:#969;}.cls-21{fill:#cb9898;}.cls-22{letter-spacing:-0.06em;}.cls-23{font-size:10px;}.cls-24{letter-spacing:-0.04em;}.cls-25,.cls-26,.cls-27{fill:none;}.cls-26{stroke-dasharray:12.08 12.08;}.cls-27{stroke-dasharray:12;}.cls-28{fill:#cccccb;opacity:0.2;}.cls-29{font-size:16px;}.cls-30{letter-spacing:-0.07em;}</style></defs><title>layout</title><rect class="cls-1" x="0.5" y="480.95" width="22.51" height="19.47"/><g class="cls-2"><text class="cls-3" transform="translate(30.92 488.43)">RI<tspan class="cls-4" x="7.3" y="0">A</tspan><tspan class="cls-5" x="12.03" y="0">T x MONERO S</tspan><tspan class="cls-6" x="64.35" y="0">T</tspan><tspan class="cls-7" x="68.27" y="0">AGE</tspan></text><text class="cls-3" transform="translate(30.92 497.19)">plus seating</text></g><rect class="cls-8" x="0.5" y="508.41" width="22.51" height="19.47"/><g class="cls-2"><text class="cls-3" transform="translate(30.92 515.88)">RI<tspan class="cls-4" x="7.3" y="0">A</tspan><tspan class="cls-5" x="12.03" y="0">T/ MONERO/ </tspan></text><text class="cls-3" transform="translate(30.92 524.64)">DEZENTRUM/ OSH<tspan class="cls-9" x="65.7" y="0">W</tspan><tspan class="cls-10" x="72.19" y="0">A</tspan></text></g><rect class="cls-11" x="0.5" y="535.87" width="22.51" height="19.47"/><g class="cls-2"><text class="cls-3" transform="translate(30.92 543.34)">CRITICA<tspan class="cls-12" x="29.6" y="0">L</tspan><tspan class="cls-7" x="33.93" y="0" xml:space="preserve"> WORKSHO</tspan><tspan class="cls-13" x="74.89" y="0">P</tspan></text><text class="cls-3" transform="translate(30.92 552.1)">ARE<tspan class="cls-10" x="15.41" y="0">A A</tspan><tspan x="27.17" y="0" xml:space="preserve"> + B</tspan></text></g><rect class="cls-14" x="331.79" y="511.23" width="22.51" height="19.47"/><g class="cls-2"><text class="cls-3" transform="translate(362.21 518.7)">MNT / FOSS<tspan class="cls-15" x="41.77" y="0"> </tspan><tspan x="43.53" y="0">ASI</tspan><tspan class="cls-10" x="55.7" y="0">A</tspan><tspan class="cls-7" x="60.7" y="0" xml:space="preserve"> / </tspan></text><text class="cls-3" transform="translate(362.21 527.46)">APERTUS</text></g><rect class="cls-16" x="331.79" y="483.77" width="22.51" height="19.47"/><g class="cls-2"><text class="cls-3" transform="translate(362.21 491.24)">DISCURSIVE NETWORK/ SPEAKERS PRE<tspan class="cls-17" x="145.61" y="0">P</tspan><tspan class="cls-7" x="150.35" y="0" xml:space="preserve"> / RESEARCH +</tspan></text><text class="cls-3" transform="translate(362.21 500)">INTE<tspan class="cls-17" x="16.63" y="0">R</tspan><tspan x="21.77" y="0">VIEW S</tspan><tspan class="cls-4" x="47.32" y="0">TA</tspan><tspan class="cls-5" x="55.97" y="0">TION / HACKTICK DISCURSE</tspan></text></g><rect class="cls-18" x="331.79" y="535.87" width="22.51" height="19.47"/><text class="cls-3" transform="translate(362.21 547.72)">VERTICA<tspan class="cls-17" x="32.04" y="0">L</tspan><tspan class="cls-7" x="36.37" y="0" xml:space="preserve"> MIX / MAGICIANS CORNER</tspan></text><rect class="cls-19" x="140.1" y="533.05" width="22.51" height="19.47"/><g class="cls-2"><text class="cls-3" transform="translate(170.52 540.53)">Paralelni Polis Coffee </text><text class="cls-3" transform="translate(170.52 549.29)">couches + assembly seating</text></g><rect class="cls-20" x="140.1" y="505.6" width="22.51" height="19.47"/><g class="cls-2"><text class="cls-3" transform="translate(170.52 513.07)">CLUSTER INFODESK / TIME<tspan class="cls-6" x="97.74" y="0">T</tspan><tspan class="cls-7" x="101.66" y="0">ABLE</tspan></text><text class="cls-3" transform="translate(170.52 521.83)">STICKE<tspan class="cls-17" x="26.77" y="0">R</tspan><tspan class="cls-9" x="31.91" y="0">W</tspan><tspan class="cls-7" x="38.4" y="0">AL</tspan><tspan class="cls-12" x="48.13" y="0">L</tspan></text></g><rect class="cls-21" x="140.1" y="480.95" width="22.51" height="19.47"/><text class="cls-3" transform="translate(170.52 492.51)">ARTE<tspan class="cls-22" x="19.87" y="0">F</tspan><tspan x="23.93" y="0">ACTS &amp; MAGAZINE </tspan><tspan class="cls-6" x="94.09" y="0">P</tspan><tspan class="cls-7" x="98.41" y="0">ALETTE</tspan></text><text class="cls-23" transform="translate(0.5 467.54)">AGEND<tspan class="cls-24" x="36.11" y="0">A</tspan><tspan x="42.96" y="0" xml:space="preserve"> CDC + POSITIONING</tspan><tspan class="cls-24" x="144.37" y="0"> </tspan><tspan x="146.77" y="0">ASSEMBLIES</tspan></text><line class="cls-25" x1="0.5" y1="472.54" x2="558.88" y2="472.54"/><line class="cls-25" x1="36.46" y1="194.29" x2="42.24" y2="192.68"/><line class="cls-26" x1="53.87" y1="189.45" x2="722.96" y2="3.7"/><line class="cls-25" x1="728.78" y1="2.09" x2="734.56" y2="0.48"/><line class="cls-27" x1="442.84" y1="443.97" x2="36.46" y2="321.96"/><line class="cls-27" x1="730.36" y1="530.3" x2="584.28" y2="486.44"/><path class="cls-28" d="M86.65,236.88,775.51,63.13s60.6,201.08,7.1,448.23L80.41,335.18C91.06,307.48,86.65,236.88,86.65,236.88Z" transform="translate(-24.48 -28.46)"/><rect class="cls-1" x="108.37" y="262.84" width="65.07" height="44.22" transform="translate(-175.68 381.89) rotate(-86.92)"/><text class="cls-29" transform="translate(122.68 283.65) rotate(-87.43)">S<tspan class="cls-30" x="10.67" y="0">T</tspan><tspan x="19.26" y="0">AGE</tspan></text><rect class="cls-1" x="186.69" y="314.11" width="13" height="12.35" transform="translate(-161.49 467.53) rotate(-86.92)"/><rect class="cls-1" x="187.39" y="301.06" width="13" height="12.35" transform="translate(-147.8 455.88) rotate(-86.92)"/><rect class="cls-1" x="188.09" y="288.03" width="13" height="12.35" transform="translate(-134.13 444.26) rotate(-86.92)"/><rect class="cls-1" x="188.79" y="275.01" width="13" height="12.35" transform="translate(-120.46 432.62) rotate(-86.92)"/><rect class="cls-1" x="189.5" y="261.98" width="13" height="12.35" transform="translate(-106.78 421) rotate(-86.92)"/><rect class="cls-1" x="190.2" y="248.94" width="13" height="12.35" transform="translate(-93.09 409.37) rotate(-86.92)"/><rect class="cls-1" x="209.43" y="314.56" width="13" height="12.35" transform="translate(-140.42 490.66) rotate(-86.92)"/><rect class="cls-1" x="210.13" y="301.52" width="13" height="12.35" transform="translate(-126.74 479.02) rotate(-86.92)"/><rect class="cls-1" x="210.84" y="288.48" width="13" height="12.35" transform="translate(-113.05 467.39) rotate(-86.92)"/><rect class="cls-1" x="211.53" y="275.45" width="13" height="12.35" transform="translate(-99.38 455.75) rotate(-86.92)"/><rect class="cls-1" x="212.23" y="262.42" width="13" height="12.35" transform="translate(-85.71 444.12) rotate(-86.92)"/><rect class="cls-1" x="212.94" y="249.38" width="13" height="12.35" transform="translate(-72.03 432.49) rotate(-86.92)"/><rect class="cls-1" x="213.63" y="236.35" width="13" height="12.35" transform="translate(-58.36 420.85) rotate(-86.92)"/><rect class="cls-1" x="208.73" y="327.59" width="13" height="12.35" transform="translate(-154.1 502.29) rotate(-86.92)"/><rect class="cls-1" x="230.91" y="324.66" width="13" height="12.35" transform="translate(-130.19 521.67) rotate(-86.92)"/><rect class="cls-1" x="231.62" y="311.64" width="13" height="12.35" transform="translate(-116.51 510.05) rotate(-86.92)"/><rect class="cls-1" x="232.32" y="298.6" width="13" height="12.35" transform="translate(-102.83 498.41) rotate(-86.92)"/><rect class="cls-1" x="233.01" y="285.57" width="13" height="12.35" transform="translate(-89.16 486.77) rotate(-86.92)"/><rect class="cls-1" x="234.41" y="259.51" width="13" height="12.35" transform="translate(-61.81 463.52) rotate(-86.92)"/><rect class="cls-1" x="235.12" y="246.46" width="13" height="12.35" transform="translate(-48.11 451.87) rotate(-86.92)"/><rect class="cls-1" x="235.82" y="233.43" width="13" height="12.35" transform="translate(-34.44 440.24) rotate(-86.92)"/><rect class="cls-1" x="230.22" y="337.7" width="13" height="12.35" transform="translate(-143.87 533.32) rotate(-86.92)"/><rect class="cls-1" x="258.89" y="241.76" width="13" height="12.35" transform="translate(-20.93 471.16) rotate(-86.92)"/><rect class="cls-1" x="258.19" y="254.8" width="13" height="12.35" transform="translate(-34.61 482.8) rotate(-86.92)"/><rect class="cls-1" x="257.48" y="267.84" width="13" height="12.35" transform="translate(-48.31 494.43) rotate(-86.92)"/><rect class="cls-1" x="256.08" y="293.91" width="13" height="12.35" transform="translate(-75.66 517.71) rotate(-86.92)"/><rect class="cls-1" x="255.38" y="306.93" width="13" height="12.35" transform="translate(-89.33 529.33) rotate(-86.92)"/><rect class="cls-1" x="254.67" y="319.97" width="13" height="12.35" transform="translate(-103.02 540.96) rotate(-86.92)"/><rect class="cls-1" x="253.98" y="333" width="13" height="12.35" transform="translate(-116.68 552.6) rotate(-86.92)"/><rect class="cls-1" x="253.28" y="346.05" width="13" height="12.35" transform="translate(-130.37 564.24) rotate(-86.92)"/><rect class="cls-1" x="260.29" y="215.7" width="13" height="12.35" transform="translate(6.42 447.9) rotate(-86.92)"/><rect class="cls-1" x="259.59" y="228.73" width="13" height="12.35" transform="translate(-7.25 459.53) rotate(-86.92)"/><rect class="cls-14" x="730.54" y="162.45" width="27.85" height="61.67" transform="translate(-23.42 362.16) rotate(-29.42)"/><line class="cls-25" x1="705.17" y1="138.57" x2="735.14" y2="191.71"/><line class="cls-25" x1="707.28" y1="172.02" x2="732.12" y2="158.01"/><rect class="cls-14" x="672.08" y="127.58" width="27.85" height="61.67" transform="translate(496.17 814.32) rotate(-89.42)"/><line class="cls-25" x1="631.37" y1="129.65" x2="692.37" y2="130.27"/><line class="cls-25" x1="661.39" y1="144.54" x2="661.68" y2="116.03"/><rect class="cls-14" x="713.43" y="111.65" width="61.67" height="27.85" transform="translate(233.04 673.99) rotate(-59.42)"/><line class="cls-25" x1="735.16" y1="71.12" x2="704.12" y2="123.65"/><line class="cls-25" x1="732.36" y1="104.52" x2="707.81" y2="90.01"/><rect class="cls-8" x="460.81" y="288.35" width="27.85" height="61.67" transform="translate(-120.05 245.9) rotate(-29.42)"/><line class="cls-25" x1="435.43" y1="264.46" x2="465.4" y2="317.6"/><line class="cls-25" x1="437.55" y1="297.91" x2="462.39" y2="283.9"/><rect class="cls-8" x="402.34" y="253.46" width="27.85" height="61.67" transform="translate(103.29 669.2) rotate(-89.42)"/><line class="cls-25" x1="361.63" y1="255.54" x2="422.64" y2="256.16"/><line class="cls-25" x1="391.65" y1="270.44" x2="391.94" y2="241.92"/><rect class="cls-8" x="444.46" y="237.17" width="61.66" height="27.85" transform="translate(-7.6 503.37) rotate(-59.33)"/><line class="cls-25" x1="465.42" y1="197.02" x2="434.38" y2="249.54"/><line class="cls-25" x1="462.63" y1="230.42" x2="438.08" y2="215.91"/><rect class="cls-8" x="315.81" y="217.96" width="27.85" height="61.67" transform="translate(-104.17 165.59) rotate(-29.42)"/><line class="cls-25" x1="320.08" y1="246.63" x2="290.11" y2="193.48"/><line class="cls-25" x1="292.55" y1="227.51" x2="317.39" y2="213.5"/><rect class="cls-8" x="298.52" y="302.95" width="61.67" height="27.85" transform="translate(-135.48 410.76) rotate(-59.42)"/><line class="cls-25" x1="289.52" y1="314.4" x2="320.56" y2="261.87"/><line class="cls-25" x1="292.31" y1="281" x2="316.86" y2="295.51"/><rect class="cls-8" x="373.7" y="253.21" width="27.85" height="61.67" transform="translate(75.2 640.31) rotate(-89.42)"/><line class="cls-25" x1="393.3" y1="255.87" x2="332.3" y2="255.25"/><line class="cls-25" x1="363.28" y1="240.98" x2="362.99" y2="269.49"/><rect class="cls-20" x="729.78" y="256.92" width="27.85" height="61.67" transform="translate(423.96 1000.06) rotate(-89.42)"/><line class="cls-25" x1="689.08" y1="259" x2="750.09" y2="259.62"/><line class="cls-25" x1="719.1" y1="273.9" x2="719.39" y2="245.38"/><rect class="cls-16" x="609.97" y="221.41" width="27.85" height="61.67" transform="translate(-67.93 310.53) rotate(-29.42)"/><line class="cls-25" x1="614.24" y1="250.09" x2="584.28" y2="196.95"/><line class="cls-25" x1="586.71" y1="230.97" x2="611.55" y2="216.97"/><rect class="cls-16" x="592.7" y="306.41" width="61.67" height="27.85" transform="translate(6.05 665.72) rotate(-59.42)"/><line class="cls-25" x1="583.68" y1="317.86" x2="614.72" y2="265.34"/><line class="cls-25" x1="586.47" y1="284.46" x2="611.02" y2="298.97"/><rect class="cls-16" x="667.87" y="256.66" width="27.85" height="61.67" transform="translate(362.94 937.89) rotate(-89.42)"/><line class="cls-25" x1="687.47" y1="259.33" x2="626.46" y2="258.71"/><line class="cls-25" x1="657.45" y1="244.44" x2="657.16" y2="272.95"/><rect class="cls-18" x="552.51" y="166.1" width="61.67" height="27.85" transform="translate(-37.68 281.3) rotate(-29.42)"/><line class="cls-25" x1="532.6" y1="166.38" x2="585.74" y2="136.42"/><line class="cls-25" x1="566.05" y1="164.27" x2="552.04" y2="139.43"/><rect class="cls-8" x="517.62" y="224.57" width="61.67" height="27.85" transform="translate(279.94 756.05) rotate(-89.42)"/><line class="cls-25" x1="523.68" y1="240.19" x2="524.3" y2="179.18"/><line class="cls-25" x1="538.57" y1="210.17" x2="510.06" y2="209.88"/><rect class="cls-11" x="501.69" y="149.38" width="27.85" height="61.67" transform="translate(73.67 503.98) rotate(-59.42)"/><line class="cls-25" x1="465.15" y1="136.4" x2="517.68" y2="167.44"/><line class="cls-25" x1="498.55" y1="139.19" x2="484.05" y2="163.74"/><rect class="cls-11" x="481.31" y="374.46" width="61.67" height="27.85" transform="translate(-149.21 273.19) rotate(-29.42)"/><line class="cls-25" x1="513.95" y1="345.1" x2="460.81" y2="375.07"/><line class="cls-25" x1="494.84" y1="372.63" x2="480.83" y2="347.79"/><rect class="cls-19" x="566.67" y="358.96" width="27.85" height="61.66" transform="translate(-75.3 661.89) rotate(-59.33)"/><line class="cls-25" x1="581.72" y1="375.66" x2="529.2" y2="344.62"/><line class="cls-25" x1="548.32" y1="372.87" x2="562.83" y2="348.32"/><rect class="cls-8" x="516.55" y="316.56" width="61.67" height="27.85" transform="translate(186.89 846.04) rotate(-89.42)"/><line class="cls-25" x1="523.2" y1="271.88" x2="522.58" y2="332.88"/><line class="cls-25" x1="508.3" y1="301.9" x2="536.82" y2="302.19"/><rect class="cls-21" x="675.85" y="335.18" width="27.85" height="30.84" transform="translate(-107.75 355.58) rotate(-29.42)"/><line class="cls-25" x1="672.7" y1="335.26" x2="657.72" y2="308.69"/><line class="cls-25" x1="678" y1="314.95" x2="653.16" y2="328.96"/><rect class="cls-21" x="674.47" y="208.13" width="30.84" height="27.85" transform="translate(123.26 674.57) rotate(-59.42)"/><line class="cls-25" x1="657.75" y1="206.58" x2="673.27" y2="180.32"/><line class="cls-25" x1="677.98" y1="201.01" x2="653.43" y2="186.5"/><polygon class="cls-19" points="711.92 415.56 653.12 405.29 647.3 438.61 706.1 448.88 739.41 454.7 757.24 352.65 723.92 346.83 711.92 415.56"/></svg>