<?xml version="1.0" encoding="UTF-8" standalone="no"?>
<svg
   viewBox="0 0 811.64996 196.84903"
   version="1.1"
   id="svg30"
   sodipodi:docname="logo-full-cdc.svg"
   inkscape:version="1.4.2 (ebf0e940d0, 2025-05-08)"
   width="811.64996"
   height="196.84903"
   xmlns:inkscape="http://www.inkscape.org/namespaces/inkscape"
   xmlns:sodipodi="http://sodipodi.sourceforge.net/DTD/sodipodi-0.dtd"
   xmlns="http://www.w3.org/2000/svg"
   xmlns:svg="http://www.w3.org/2000/svg"
   xmlns:rdf="http://www.w3.org/1999/02/22-rdf-syntax-ns#"
   xmlns:cc="http://creativecommons.org/ns#">
  <sodipodi:namedview
     id="namedview30"
     pagecolor="#505050"
     bordercolor="#eeeeee"
     borderopacity="1"
     inkscape:showpageshadow="0"
     inkscape:pageopacity="0"
     inkscape:pagecheckerboard="0"
     inkscape:deskcolor="#d1d1d1"
     inkscape:zoom="0.80181818"
     inkscape:cx="376.02041"
     inkscape:cy="117.85714"
     inkscape:window-width="1920"
     inkscape:window-height="1059"
     inkscape:window-x="0"
     inkscape:window-y="21"
     inkscape:window-maximized="1"
     inkscape:current-layer="svg30" />
  <defs
     id="defs1">
    <style
       id="style1">
      .cls-1 {
        fill: #0b0409;
      }

      .cls-1, .cls-2 {
        stroke-width: 2.86px;
      }

      .cls-1, .cls-2, .cls-3, .cls-4 {
        stroke: #6a5fdb;
      }

      .cls-5 {
        fill: #ff5053;
      }

      .cls-2 {
        fill: none;
      }

      .cls-6 {
        fill: #b2aaff;
      }

      .cls-3 {
        fill: #0f000a;
      }

      .cls-3, .cls-4 {
        stroke-width: 2.5px;
      }

      .cls-4 {
        fill: #190b2f;
        stroke-miterlimit: 10;
      }

      .cls-7 {
        stroke: #ff5053;
        stroke-linejoin: round;
        stroke-width: 4.5px;
      }
    </style>
  </defs>
  <g
     id="g31"
     transform="translate(-265.42999,-207.26)">
    <rect
       id="rect4"
       class="cls-1"
       x="266.85999"
       y="208.69"
       width="484.60999"
       height="87.5" />
    <rect
       class="cls-2"
       x="266.85999"
       y="208.69"
       width="87.5"
       height="87.5"
       id="rect1" />
    <g
       id="Icons">
      <g
         id="g2">
        <path
           id="path1-7"
           class="cls-5"
           d="m 290.7,225.51 c -1.68,0.02 -3.06,0.06 -3.09,0.08 -0.05,0.05 1.37,2.32 4.03,6.46 3.89,6.06 6.29,10.04 6.54,10.87 0.04,0.12 -0.06,0.34 -0.36,0.86 -0.94,1.61 -3.63,5.84 -8.16,12.84 l -2.08,3.21 1.22,0.04 c 0.67,0.03 7.39,0.06 14.94,0.09 7.55,0.02 16.51,0.06 19.93,0.09 l 6.19,0.05 v 19.34 h 3.79 v -54 h -19.94 c -10.97,0.02 -21.32,0.04 -23,0.07 z m 39.16,17.22 v 13.51 l -17.64,-0.03 c -9.7,-0.01 -17.66,-0.04 -17.69,-0.07 -0.06,-0.06 0.94,-1.66 3.54,-5.7 3.08,-4.79 4.71,-7.44 4.71,-7.66 0,-0.22 -1.37,-2.44 -4,-6.52 -1.59,-2.46 -3.76,-5.9 -4.1,-6.48 l -0.19,-0.33 0.39,-0.05 c 0.71,-0.09 9.14,-0.16 22.14,-0.16 h 12.84 c 0,0 0,13.49 0,13.49 z" />
      </g>
    </g>
    <g
       id="g14">
      <path
         class="cls-6"
         d="m 404.06,243.97 c 7.37,0 11.86,4.39 13.04,10.4 l -6.52,1.41 c -0.37,-3.25 -2.35,-5.85 -6.41,-5.85 -4.06,0 -7.16,3.03 -7.16,8.23 0,5.2 3.1,8.23 7.16,8.23 4.06,0 6.04,-2.44 6.62,-5.9 l 6.52,1.57 c -1.5,5.9 -5.82,10.29 -13.25,10.29 -7.43,0 -13.78,-5.85 -13.78,-14.19 0,-8.34 6.09,-14.19 13.78,-14.19 z"
         id="path7" />
      <path
         class="cls-6"
         d="m 451.11,248.52 h 0.53 c 1.02,-2.87 3.26,-3.9 6.62,-3.9 h 2.78 v 5.74 h -3.95 c -3.42,0 -5.88,1.84 -5.88,5.63 v 15.6 h -6.73 v -26.87 h 6.62 v 3.79 z"
         id="path8" />
      <path
         class="cls-6"
         d="m 490.85,232.27 c 2.67,0 4.75,1.9 4.75,4.66 0,2.76 -2.08,4.66 -4.75,4.66 -2.67,0 -4.75,-1.9 -4.75,-4.66 0,-2.76 2.08,-4.66 4.75,-4.66 z m 3.37,39.33 h -6.73 v -26.87 h 6.73 z"
         id="path9" />
      <path
         class="cls-6"
         d="m 520.45,244.73 h 6.62 v -8.34 h 6.73 v 8.34 h 7.26 v 5.53 h -7.26 v 14.19 c 0,1.08 0.53,1.62 1.5,1.62 h 5.13 v 5.53 h -7.48 c -3.53,0 -5.88,-2.38 -5.88,-6.07 v -15.28 h -6.62 v -5.53 z"
         id="path10" />
      <path
         class="cls-6"
         d="m 571.94,232.27 c 2.67,0 4.75,1.9 4.75,4.66 0,2.76 -2.08,4.66 -4.75,4.66 -2.67,0 -4.75,-1.9 -4.75,-4.66 0,-2.76 2.08,-4.66 4.75,-4.66 z m 3.36,39.33 h -6.73 v -26.87 h 6.73 z"
         id="path11" />
      <path
         class="cls-6"
         d="m 616.49,243.97 c 7.37,0 11.86,4.39 13.03,10.4 l -6.52,1.41 c -0.37,-3.25 -2.35,-5.85 -6.41,-5.85 -4.06,0 -7.16,3.03 -7.16,8.23 0,5.2 3.1,8.23 7.16,8.23 4.06,0 6.04,-2.44 6.62,-5.9 l 6.52,1.57 c -1.5,5.9 -5.82,10.29 -13.25,10.29 -7.43,0 -13.78,-5.85 -13.78,-14.19 0,-8.34 6.09,-14.19 13.78,-14.19 z"
         id="path12" />
      <path
         class="cls-6"
         d="m 668.73,243.97 c 6.94,0 11.49,3.95 11.49,10.67 v 16.95 h -6.52 v -3.47 h -0.53 c -0.85,1.57 -2.94,4.23 -8.12,4.23 -5.45,0 -9.51,-2.87 -9.51,-7.96 0,-5.09 4.17,-7.42 9.72,-8.29 l 8.33,-1.3 v -0.65 c 0,-2.6 -1.5,-4.77 -5.13,-4.77 -3.63,0 -5.56,2.17 -6.2,5.2 l -6.46,-2.22 c 1.82,-4.44 5.98,-8.4 12.93,-8.4 z m -2.14,23.18 c 4.27,0 7,-2.82 7,-6.83 v -0.7 l -7.59,1.19 c -2.4,0.38 -3.74,1.46 -3.74,3.2 0,1.74 1.33,3.14 4.33,3.14 z"
         id="path13" />
      <path
         class="cls-6"
         d="m 715.62,271.6 h -6.73 v -37.92 h 6.73 z"
         id="path14" />
    </g>
  </g>
  <g
     id="g32"
     transform="translate(-128.94,-576.421)">
    <rect
       id="rect6"
       class="cls-1"
       x="130.37"
       y="684.34003"
       width="808.78998"
       height="87.5" />
    <g
       id="g30">
      <path
         class="cls-6"
         d="m 189.65,746.31 h -6.62 v -3.63 h -0.53 c -1.6,2.33 -4.17,4.39 -8.76,4.39 -6.3,0 -11.97,-5.42 -11.97,-14.19 0,-8.77 5.66,-14.19 11.97,-14.19 4.59,0 7.16,2.06 8.65,4.22 h 0.53 v -14.52 h 6.73 z M 168.5,732.88 c 0,5.31 3.1,8.34 7.27,8.34 4.17,0 7.26,-3.03 7.26,-8.34 0,-5.31 -3.1,-8.34 -7.26,-8.34 -4.16,0 -7.27,3.03 -7.27,8.34 z"
         id="path15" />
      <path
         class="cls-6"
         d="m 230.35,718.69 c 7.69,0 12.88,5.47 12.88,13.76 V 735 h -19.29 c 0.27,3.47 2.99,6.23 6.73,6.23 3.74,0 5.61,-2.11 6.73,-4.12 l 5.4,3.36 c -1.5,2.06 -4.65,6.61 -12.13,6.61 -8.12,0 -13.62,-6.07 -13.62,-14.41 0,-8.34 5.5,-13.98 13.3,-13.98 z m 6.04,11.54 c -0.37,-3.52 -2.62,-5.69 -6.09,-5.69 -3.79,0 -5.88,2.27 -6.3,5.69 z"
         id="path16" />
      <path
         class="cls-6"
         d="m 282.59,718.69 c 7.37,0 11.86,4.39 13.04,10.4 l -6.52,1.41 c -0.37,-3.25 -2.35,-5.85 -6.41,-5.85 -4.06,0 -7.16,3.03 -7.16,8.23 0,5.2 3.1,8.23 7.16,8.23 4.06,0 6.04,-2.44 6.62,-5.9 l 6.52,1.57 c -1.5,5.91 -5.82,10.29 -13.25,10.29 -7.43,0 -13.78,-5.85 -13.78,-14.19 0,-8.34 6.09,-14.19 13.78,-14.19 z"
         id="path17" />
      <path
         class="cls-6"
         d="m 334.72,718.69 c 7.69,0 12.87,5.47 12.87,13.76 V 735 H 328.3 c 0.27,3.47 2.99,6.23 6.73,6.23 3.74,0 5.61,-2.11 6.73,-4.12 l 5.4,3.36 c -1.5,2.06 -4.65,6.61 -12.13,6.61 -8.12,0 -13.62,-6.07 -13.62,-14.41 0,-8.34 5.5,-13.98 13.3,-13.98 z m 6.04,11.54 c -0.37,-3.52 -2.62,-5.69 -6.09,-5.69 -3.79,0 -5.88,2.27 -6.3,5.69 z"
         id="path18" />
      <path
         class="cls-6"
         d="m 381.41,719.45 v 4.01 h 0.53 c 1.07,-2.27 3.31,-4.44 8.17,-4.44 6.2,0 10.31,4.6 10.31,11.27 v 16.03 h -6.73 v -15.71 c 0,-4.06 -2.03,-6.07 -5.66,-6.07 -4.11,0 -6.52,2.92 -6.52,7.91 v 13.87 h -6.73 v -26.87 h 6.62 z"
         id="path19" />
      <path
         class="cls-6"
         d="m 425.79,719.45 h 6.62 v -8.34 h 6.73 v 8.34 h 7.26 v 5.53 h -7.26 v 14.19 c 0,1.08 0.53,1.62 1.5,1.62 h 5.13 v 5.53 h -7.48 c -3.53,0 -5.88,-2.38 -5.88,-6.07 v -15.28 h -6.62 v -5.53 z"
         id="path20" />
      <path
         class="cls-6"
         d="m 480.55,723.24 h 0.53 c 1.01,-2.87 3.26,-3.9 6.62,-3.9 h 2.78 v 5.74 h -3.95 c -3.42,0 -5.88,1.84 -5.88,5.63 v 15.6 h -6.73 v -26.87 h 6.62 v 3.79 z"
         id="path21" />
      <path
         class="cls-6"
         d="m 528.46,718.69 c 6.94,0 11.49,3.95 11.49,10.67 v 16.96 h -6.52 v -3.47 h -0.53 c -0.85,1.57 -2.94,4.23 -8.12,4.23 -5.45,0 -9.51,-2.87 -9.51,-7.96 0,-5.09 4.17,-7.42 9.72,-8.29 l 8.33,-1.3 v -0.65 c 0,-2.6 -1.5,-4.77 -5.13,-4.77 -3.63,0 -5.56,2.17 -6.2,5.2 l -6.46,-2.22 c 1.82,-4.44 5.98,-8.4 12.93,-8.4 z m -2.14,23.18 c 4.27,0 7,-2.82 7,-6.83 v -0.71 l -7.59,1.19 c -2.4,0.38 -3.74,1.46 -3.74,3.2 0,1.74 1.33,3.14 4.33,3.14 z"
         id="path22" />
      <path
         class="cls-6"
         d="m 575.36,746.31 h -6.73 v -37.92 h 6.73 z"
         id="path23" />
      <path
         class="cls-6"
         d="m 607.73,706.99 c 2.67,0 4.75,1.9 4.75,4.66 0,2.76 -2.08,4.66 -4.75,4.66 -2.67,0 -4.75,-1.9 -4.75,-4.66 0,-2.76 2.08,-4.66 4.75,-4.66 z m 3.36,39.32 h -6.73 v -26.87 h 6.73 z"
         id="path24" />
      <path
         class="cls-6"
         d="m 650.24,718.69 c 6.2,0 10.79,3.09 13.36,8.07 l -5.98,2.44 c -1.39,-4.17 -4.59,-5.2 -7.27,-5.2 -2.68,0 -4.33,0.92 -4.33,2.65 0,1.73 1.39,2.44 4.27,3.03 l 2.67,0.54 c 5.45,1.08 10.31,2.76 10.31,8.29 0,5.53 -4.81,8.56 -11.33,8.56 -6.52,0 -11.7,-3.03 -13.89,-8.83 l 6.09,-2.17 c 1.23,4.5 4.38,5.69 7.69,5.69 3.31,0 4.92,-1.19 4.92,-2.93 0,-1.74 -1.5,-2.27 -4.59,-2.92 l -2.67,-0.54 c -5.56,-1.14 -9.99,-3.41 -9.99,-8.5 0,-5.09 4.54,-8.18 10.74,-8.18 z"
         id="path25" />
      <path
         class="cls-6"
         d="m 702.75,718.69 c 6.94,0 11.49,3.95 11.49,10.67 v 16.96 h -6.52 v -3.47 h -0.53 c -0.85,1.57 -2.94,4.23 -8.12,4.23 -5.45,0 -9.51,-2.87 -9.51,-7.96 0,-5.09 4.17,-7.42 9.72,-8.29 l 8.33,-1.3 v -0.65 c 0,-2.6 -1.5,-4.77 -5.13,-4.77 -3.63,0 -5.56,2.17 -6.2,5.2 l -6.46,-2.22 c 1.82,-4.44 5.98,-8.4 12.93,-8.4 z m -2.14,23.18 c 4.27,0 7,-2.82 7,-6.83 v -0.71 l -7.59,1.19 c -2.4,0.38 -3.74,1.46 -3.74,3.2 0,1.74 1.33,3.14 4.33,3.14 z"
         id="path26" />
      <path
         class="cls-6"
         d="m 739.6,719.45 h 6.62 v -8.34 h 6.73 v 8.34 h 7.26 v 5.53 h -7.26 v 14.19 c 0,1.08 0.53,1.62 1.5,1.62 h 5.13 v 5.53 h -7.48 c -3.53,0 -5.88,-2.38 -5.88,-6.07 v -15.28 h -6.62 v -5.53 z"
         id="path27" />
      <path
         class="cls-6"
         d="m 791.1,706.99 c 2.67,0 4.75,1.9 4.75,4.66 0,2.76 -2.08,4.66 -4.75,4.66 -2.67,0 -4.75,-1.9 -4.75,-4.66 0,-2.76 2.08,-4.66 4.75,-4.66 z m 3.36,39.32 h -6.73 v -26.87 h 6.73 z"
         id="path28" />
      <path
         class="cls-6"
         d="m 835.75,718.69 c 7.91,0 13.89,5.42 13.89,14.19 0,8.77 -5.98,14.19 -13.89,14.19 -7.91,0 -13.89,-5.42 -13.89,-14.19 0,-8.77 5.98,-14.19 13.89,-14.19 z m 0,22.42 c 4.17,0 7.16,-3.03 7.16,-8.23 0,-5.2 -2.99,-8.23 -7.16,-8.23 -4.17,0 -7.16,3.03 -7.16,8.23 0,5.2 2.99,8.23 7.16,8.23 z"
         id="path29" />
      <path
         class="cls-6"
         d="m 883.67,719.45 v 4.01 h 0.53 c 1.07,-2.27 3.31,-4.44 8.17,-4.44 6.2,0 10.31,4.6 10.31,11.27 v 16.03 h -6.73 v -15.71 c 0,-4.06 -2.03,-6.07 -5.66,-6.07 -4.11,0 -6.52,2.92 -6.52,7.91 v 13.87 h -6.73 v -26.87 h 6.62 z"
         id="path30" />
    </g>
  </g>
  <metadata
     id="metadata32">
    <rdf:RDF>
      <cc:Work
         rdf:about="">
        <cc:license
           rdf:resource="http://creativecommons.org/licenses/by-sa/4.0/" />
      </cc:Work>
      <cc:License
         rdf:about="http://creativecommons.org/licenses/by-sa/4.0/">
        <cc:permits
           rdf:resource="http://creativecommons.org/ns#Reproduction" />
        <cc:permits
           rdf:resource="http://creativecommons.org/ns#Distribution" />
        <cc:requires
           rdf:resource="http://creativecommons.org/ns#Notice" />
        <cc:requires
           rdf:resource="http://creativecommons.org/ns#Attribution" />
        <cc:permits
           rdf:resource="http://creativecommons.org/ns#DerivativeWorks" />
        <cc:requires
           rdf:resource="http://creativecommons.org/ns#ShareAlike" />
      </cc:License>
    </rdf:RDF>
  </metadata>
</svg>
